<svg id="_1" data-name="1" xmlns="http://www.w3.org/2000/svg" width="225.688" height="95.26" viewBox="0 0 225.688 95.26">
  <g id="Grupo_6" data-name="Grupo 6" transform="translate(64.658)">
    <path id="Caminho_1" data-name="Caminho 1" d="M937.469,360.716l-50.442-26.743-12.261,4.279-1.234,4.937-4.032-9.874,1.317-3.868,7.159-6.583,17.363.329,2.962-3.127s15.717-4.4,25.509,5.76S937.469,360.716,937.469,360.716Z" transform="translate(-869.5 -309.534)" fill="#fff"/>
    <path id="Caminho_2" data-name="Caminho 2" d="M944.411,302.837s-8.319-.794-17.856-1.728c-4.887-.479-10.166-1.4-14.729-1.4-5.41,0-9.451,1.175-12.837,1.81-4.666.876-7.488,1.317-7.488,1.317V300.7L910.755,290Z" transform="translate(-882.366 -290)" fill="#fff"/>
    <path id="Caminho_3" data-name="Caminho 3" d="M890.75,376.333A183.475,183.475,0,0,1,910.5,387.3a82.158,82.158,0,0,1,14.894,13.276l-3.675,12.571-4.143,14.172Z" transform="translate(-864.253 -347.917)" fill="#fff"/>
    <path id="Caminho_4" data-name="Caminho 4" d="M947.583,404.333s8.263,11.589,11.411,20.188a27.163,27.163,0,0,1,.905,15.909l-7.488,12.837Z" transform="translate(-916.04 -366.701)" fill="#fff"/>
    <path id="Caminho_5" data-name="Caminho 5" d="M992.549,453.667a53.513,53.513,0,0,1,2.194,13.6c0,6.542-4.087,12.425-4.087,12.425l-7.406,7.817Z" transform="translate(-958.811 -399.796)" fill="#fff"/>
    <path id="Caminho_6" data-name="Caminho 6" d="M858.333,446.135a94.56,94.56,0,0,1,11.9-10.423,148.518,148.518,0,0,1,15.415-9.545l33.3,12.727-15.39-.938-17.909-1.092Z" transform="translate(-857.072 -426.112)" fill="#fff"/>
  </g>
  <text id="EXECUTIVE_SEARCH" data-name="EXECUTIVE SEARCH" transform="translate(34.955 94.26)" fill="#fff" font-size="2" font-family="Aneo-Regular, Aneo" letter-spacing="1.524em"><tspan x="0" y="0">EXECUTIVE SEARCH</tspan></text>
  <path id="Caminho_22" data-name="Caminho 22" d="M6.06-56.958c0,6.217,4.687,6.616,9.973,6.616H22.35c5.286,0,9.973-.4,9.973-6.616v-11.5c0-6.15-4.687-6.582-9.973-6.582H16.033c-5.286,0-9.973.432-9.973,6.582Zm10.206,4.189h0c-3.557,0-5.751-.332-5.751-4.189v-11.5c0-3.823,2.194-4.122,5.751-4.122h5.851c3.557,0,5.751.3,5.751,4.122v11.5c0,3.856-2.194,4.189-5.751,4.189ZM36.977-72.583v22.24h4.455v-22.24a1.256,1.256,0,0,1,1.1.7l11.735,18.55a5.76,5.76,0,0,0,5.585,2.992H61.91a2.448,2.448,0,0,0,2.46-2.427V-75.043H59.915v22.274a1.364,1.364,0,0,1-1.1-.731L47.05-72.051A5.716,5.716,0,0,0,41.5-75.043H39.437A2.455,2.455,0,0,0,36.977-72.583ZM69.024-56.958c0,6.183,4.721,6.616,9.973,6.616H91.53V-52.8H79.23c-3.557,0-5.718-.332-5.718-4.156v-4.521H91.53v-2.46H73.512v-4.488c0-3.823,2.161-4.156,5.718-4.156h12.3v-2.46H79c-5.253,0-9.973.432-9.973,6.616Z" transform="translate(-6.06 115.185)" fill="#fff"/>
  <path id="Caminho_23" data-name="Caminho 23" d="M6.06-56.958c0,6.217,4.687,6.616,9.973,6.616H22.35c5.286,0,9.973-.4,9.973-6.616v-11.5c0-6.15-4.687-6.582-9.973-6.582H16.033c-5.286,0-9.973.432-9.973,6.582Zm10.206,4.189h0c-3.557,0-5.751-.332-5.751-4.189v-11.5c0-3.823,2.194-4.122,5.751-4.122h5.851c3.557,0,5.751.3,5.751,4.122v11.5c0,3.856-2.194,4.189-5.751,4.189ZM36.977-72.583v22.24h4.455v-22.24a1.256,1.256,0,0,1,1.1.7l11.735,18.55a5.76,5.76,0,0,0,5.585,2.992H61.91a2.448,2.448,0,0,0,2.46-2.427V-75.043H59.915v22.274a1.364,1.364,0,0,1-1.1-.731L47.05-72.051A5.716,5.716,0,0,0,41.5-75.043H39.437A2.455,2.455,0,0,0,36.977-72.583ZM69.024-56.958c0,6.183,4.721,6.616,9.973,6.616H91.53V-52.8H79.23c-3.557,0-5.718-.332-5.718-4.156v-4.521H91.53v-2.46H73.512v-4.488c0-3.823,2.161-4.156,5.718-4.156h12.3v-2.46H79c-5.253,0-9.973.432-9.973,6.616Z" transform="translate(134.158 115.185)" fill="#fff"/>
</svg>
