<svg id="_2" data-name="2" xmlns="http://www.w3.org/2000/svg" width="198.696" height="56.869" viewBox="0 0 198.696 56.869">
  <g id="Grupo_3" data-name="Grupo 3" transform="translate(17.872 3.985)">
    <path id="Caminho_19" data-name="Caminho 19" d="M28.282,68.609,19.676,52.378V66.307l1.881,2.261H11.23q0-.04,2.061-2.422V41.691l-1.581-2.1H21.777l9.306,17.531L40.009,39.59H50.5l-1.941,2.241V66.848l1.5,1.761H38.268l1.841-2.021V53.2L32.3,68.609ZM49.187,39.59H67.319q11.047,0,11.047,10.267,0,9.966-11.227,9.966H59.354v6.564l1.781,2.181H49.187l1.7-2.181V41.971Zm10.167,5.984v8.766h5.864q4.463,0,4.483-4.383,0-4.383-4.583-4.383ZM79.219,39.59h27.258v7.765l-2.281-1.8H89.465v5.684h9.366l2.181-1.8V58.7l-2.181-1.8H89.465v5.684h14.73l2.281-1.8v7.765H79.219l1.8-2.181v-24.6Zm27.13,0H124.48q11.047,0,11.047,8.766,0,7.165-6.564,8.766l7.865,11.447H123.98l1.781-2.181L120.3,58.222h-3.782v8.165l1.781,2.181H106.348l1.7-1.981V41.551Zm10.167,5.984v7.165h5.864q4.463,0,4.483-3.682,0-3.482-4.583-3.482ZM136.28,39.59h12.148l-1.7,2.081v24.8l1.7,2.081H136.28l1.8-2.181v-24.6Z" transform="translate(-11.23 -31.217)" fill="#fff"/>
    <g id="Grupo_2" data-name="Grupo 2" transform="translate(137.61)">
      <g id="Caminho_1" data-name="Caminho 1" transform="translate(0 0)" fill="none">
        <path d="M21.607,0A21.607,21.607,0,1,1,0,21.607,21.607,21.607,0,0,1,21.607,0Z" stroke="none"/>
        <path d="M 21.60707473754883 14.99999237060547 C 17.96390724182129 14.99999237060547 14.99999046325684 17.96390914916992 14.99999046325684 21.60707664489746 C 14.99999046325684 25.250244140625 17.96390724182129 28.21416091918945 21.60707473754883 28.21416091918945 C 25.25024223327637 28.21416091918945 28.21415710449219 25.250244140625 28.21415710449219 21.60707664489746 C 28.21415710449219 17.96390914916992 25.25024223327637 14.99999237060547 21.60707473754883 14.99999237060547 M 21.60707473754883 -7.62939453125e-06 C 33.54032516479492 -7.62939453125e-06 43.21415710449219 9.673805236816406 43.21415710449219 21.60707664489746 C 43.21415710449219 33.54034805297852 33.54032516479492 43.21416091918945 21.60707473754883 43.21416091918945 C 9.673824310302734 43.21416091918945 -7.62939453125e-06 33.54034805297852 -7.62939453125e-06 21.60707664489746 C -7.62939453125e-06 9.673805236816406 9.673824310302734 -7.62939453125e-06 21.60707473754883 -7.62939453125e-06 Z" stroke="none" fill="#fff"/>
      </g>
      <g id="Grupo_1" data-name="Grupo 1" transform="translate(14.368 14.352)">
        <rect id="Retângulo_1" data-name="Retângulo 1" width="5.535" height="14.605" transform="translate(4.535 0)" fill="#fff"/>
        <rect id="Retângulo_2" data-name="Retângulo 2" width="5.535" height="14.605" transform="translate(0 10.07) rotate(-90)" fill="#fff"/>
      </g>
    </g>
  </g>
  <g id="Grupo_5" data-name="Grupo 5" transform="translate(0 0)">
    <path id="Caminho_21" data-name="Caminho 21" d="M22.7-192.363H41.181L38.593-189.2v37.733l2.589,3.167H22.7l2.741-3.32v-37.429Z" transform="translate(-22.54 195.377)" fill="#fff"/>
    <g id="Grupo_4" data-name="Grupo 4" transform="translate(5.457 2.885)">
      <line id="Linha_1" data-name="Linha 1" y2="44.314" transform="translate(0)" fill="none" stroke="#000" stroke-width="2"/>
      <line id="Linha_2" data-name="Linha 2" y2="44.314" transform="translate(4.01)" fill="none" stroke="#000" stroke-width="2"/>
      <line id="Linha_3" data-name="Linha 3" y2="44.314" transform="translate(8.019)" fill="none" stroke="#000" stroke-width="2"/>
    </g>
    <rect id="Retângulo_3" data-name="Retângulo 3" width="18.446" height="1.908" fill="#fff"/>
    <rect id="Retângulo_4" data-name="Retângulo 4" width="18.446" height="1.272" transform="translate(0 48.34)" fill="#fff"/>
  </g>
  <path id="Caminho_20" data-name="Caminho 20" d="M6.538-19.725h-3.1v-5.566h3.1v.575H4.082v1.793H6.389v.571H4.082V-20.3H6.538Zm7.811,0H13.61L10.568-24.4h-.03q.061.822.061,1.507v3.163H10v-5.566h.731l3.034,4.652h.03q-.008-.1-.034-.66t-.019-.8v-3.194h.605Zm6.208-2.916h1.892v2.707a6.082,6.082,0,0,1-.9.213,6.84,6.84,0,0,1-1.058.072,2.565,2.565,0,0,1-1.968-.752,2.963,2.963,0,0,1-.7-2.107,3.184,3.184,0,0,1,.348-1.521,2.356,2.356,0,0,1,1-1,3.249,3.249,0,0,1,1.534-.345,4.193,4.193,0,0,1,1.66.327l-.251.571a3.708,3.708,0,0,0-1.45-.32,2.077,2.077,0,0,0-1.587.605,2.349,2.349,0,0,0-.571,1.679,2.4,2.4,0,0,0,.55,1.709,2.118,2.118,0,0,0,1.616.582A4.8,4.8,0,0,0,21.8-20.35v-1.713H20.556Zm8.561,2.916h-3.1v-5.566h3.1v.575H26.661v1.793h2.307v.571H26.661V-20.3h2.455Zm7.811,0h-.739L33.147-24.4h-.03q.061.822.061,1.507v3.163h-.6v-5.566h.731l3.034,4.652h.03q-.008-.1-.034-.66t-.019-.8v-3.194h.605Zm7.986,0h-.647v-2.619H41.334v2.619h-.647v-5.566h.647v2.368h2.931v-2.368h.647Zm7.255,0-.693-1.77H49.244l-.685,1.77H47.9l2.2-5.588h.544l2.189,5.588Zm-.895-2.353L50.626-23.8q-.126-.327-.259-.8a7.214,7.214,0,0,1-.24.8l-.655,1.724Zm5.207.038v2.315h-.647v-5.566h1.527a2.4,2.4,0,0,1,1.513.392,1.422,1.422,0,0,1,.489,1.18,1.478,1.478,0,0,1-1.119,1.492l1.511,2.5h-.765L57.641-22.04Zm0-.556h.887a1.532,1.532,0,0,0,1.005-.272,1.013,1.013,0,0,0,.32-.817.929.929,0,0,0-.325-.8,1.763,1.763,0,0,0-1.045-.244H56.48Zm6.4,2.87v-5.566h.647v5.566Zm7.9,0-.693-1.77H67.86l-.685,1.77H66.52l2.2-5.588h.544l2.189,5.588Zm-.895-2.353L69.242-23.8q-.126-.327-.259-.8a7.21,7.21,0,0,1-.24.8l-.655,1.724Zm7.7.872a1.365,1.365,0,0,1-.533,1.146,2.311,2.311,0,0,1-1.447.411,3.623,3.623,0,0,1-1.523-.255v-.624a4.009,4.009,0,0,0,.746.228,3.925,3.925,0,0,0,.8.084,1.613,1.613,0,0,0,.975-.246.806.806,0,0,0,.327-.683.877.877,0,0,0-.116-.474,1.079,1.079,0,0,0-.388-.341,5.432,5.432,0,0,0-.828-.354,2.643,2.643,0,0,1-1.11-.659,1.454,1.454,0,0,1-.333-.994,1.236,1.236,0,0,1,.483-1.024,2.009,2.009,0,0,1,1.279-.381,3.77,3.77,0,0,1,1.527.3l-.2.563a3.45,3.45,0,0,0-1.34-.289,1.3,1.3,0,0,0-.8.221.728.728,0,0,0-.289.613.939.939,0,0,0,.107.474,1,1,0,0,0,.36.339,4.47,4.47,0,0,0,.775.341,3.067,3.067,0,0,1,1.2.67A1.318,1.318,0,0,1,77.589-21.206Zm10.726,1.481h-3.1v-5.566h3.1v.575H85.859v1.793h2.307v.571H85.859V-20.3h2.455Zm10.859-1.481a1.365,1.365,0,0,1-.533,1.146,2.311,2.311,0,0,1-1.447.411,3.623,3.623,0,0,1-1.523-.255v-.624a4.009,4.009,0,0,0,.746.228,3.926,3.926,0,0,0,.8.084,1.613,1.613,0,0,0,.975-.246.806.806,0,0,0,.327-.683.877.877,0,0,0-.116-.474,1.079,1.079,0,0,0-.388-.341,5.432,5.432,0,0,0-.828-.354,2.643,2.643,0,0,1-1.11-.659,1.454,1.454,0,0,1-.333-.994,1.236,1.236,0,0,1,.483-1.024,2.009,2.009,0,0,1,1.279-.381,3.77,3.77,0,0,1,1.527.3l-.2.563a3.45,3.45,0,0,0-1.34-.289,1.3,1.3,0,0,0-.8.221.728.728,0,0,0-.289.613.939.939,0,0,0,.107.474,1,1,0,0,0,.36.339,4.47,4.47,0,0,0,.775.341,3.067,3.067,0,0,1,1.2.67A1.318,1.318,0,0,1,99.174-21.206Zm6.471,1.481h-3.1v-5.566h3.1v.575h-2.455v1.793H105.5v.571h-2.307V-20.3h2.455Zm4.11-2.315v2.315h-.647v-5.566h1.527a2.4,2.4,0,0,1,1.513.392,1.422,1.422,0,0,1,.489,1.18,1.478,1.478,0,0,1-1.119,1.492l1.511,2.5h-.765l-1.348-2.315Zm0-.556h.887a1.532,1.532,0,0,0,1-.272,1.013,1.013,0,0,0,.32-.817.929.929,0,0,0-.325-.8,1.763,1.763,0,0,0-1.045-.244h-.841Zm9.581-2.7h.7l-2.006,5.566h-.64l-1.995-5.566h.685l1.279,3.6a10.1,10.1,0,0,1,.35,1.207,10.071,10.071,0,0,1,.358-1.23Zm3.692,5.566v-5.566h.647v5.566Zm6.787-5.067a1.82,1.82,0,0,0-1.448.611,2.464,2.464,0,0,0-.531,1.673,2.514,2.514,0,0,0,.512,1.688,1.82,1.82,0,0,0,1.46.6,4.985,4.985,0,0,0,1.329-.209v.567a4.091,4.091,0,0,1-1.428.217,2.415,2.415,0,0,1-1.9-.746,3.073,3.073,0,0,1-.668-2.12,3.347,3.347,0,0,1,.322-1.508,2.309,2.309,0,0,1,.929-1,2.811,2.811,0,0,1,1.429-.35,3.449,3.449,0,0,1,1.53.32l-.274.556A2.95,2.95,0,0,0,129.813-24.792Zm.468,6.167a.654.654,0,0,1-.291.571,1.516,1.516,0,0,1-.862.2,1.862,1.862,0,0,1-.365-.034v-.4a2.283,2.283,0,0,0,.4.03,1.062,1.062,0,0,0,.455-.076.285.285,0,0,0,.154-.282.306.306,0,0,0-.15-.265,1.537,1.537,0,0,0-.565-.166l.335-.678h.419l-.209.438Q130.282-19.139,130.281-18.625Zm9.128-3.891a3.064,3.064,0,0,1-.676,2.1,2.376,2.376,0,0,1-1.879.765,2.406,2.406,0,0,1-1.9-.752,3.089,3.089,0,0,1-.668-2.122,3.05,3.05,0,0,1,.67-2.107,2.423,2.423,0,0,1,1.9-.748,2.371,2.371,0,0,1,1.873.761A3.061,3.061,0,0,1,139.409-22.516Zm-4.435,0a2.641,2.641,0,0,0,.482,1.715,1.709,1.709,0,0,0,1.4.584,1.692,1.692,0,0,0,1.4-.582,2.678,2.678,0,0,0,.472-1.717,2.657,2.657,0,0,0-.47-1.7,1.685,1.685,0,0,0-1.391-.581,1.718,1.718,0,0,0-1.407.584A2.614,2.614,0,0,0,134.974-22.516Zm11.046,1.31a1.365,1.365,0,0,1-.533,1.146,2.311,2.311,0,0,1-1.447.411,3.623,3.623,0,0,1-1.523-.255v-.624a4.009,4.009,0,0,0,.746.228,3.926,3.926,0,0,0,.8.084,1.613,1.613,0,0,0,.975-.246.806.806,0,0,0,.327-.683.877.877,0,0,0-.116-.474,1.079,1.079,0,0,0-.388-.341,5.434,5.434,0,0,0-.828-.354,2.643,2.643,0,0,1-1.11-.659,1.454,1.454,0,0,1-.333-.994,1.236,1.236,0,0,1,.483-1.024,2.009,2.009,0,0,1,1.279-.381,3.77,3.77,0,0,1,1.527.3l-.2.563a3.45,3.45,0,0,0-1.34-.289,1.3,1.3,0,0,0-.8.221.728.728,0,0,0-.289.613.939.939,0,0,0,.107.474,1,1,0,0,0,.36.339,4.47,4.47,0,0,0,.775.341,3.067,3.067,0,0,1,1.2.67A1.318,1.318,0,0,1,146.021-21.206Z" transform="translate(22.501 74.721)" fill="#fff"/>
</svg>
