<svg id="_4" data-name="4" xmlns="http://www.w3.org/2000/svg" width="211.76" height="72.756" viewBox="0 0 211.76 72.756">
  <path id="Caminho_2" data-name="Caminho 2" d="M162.08-75.707c1.757,2.181,3.939-2.545.182-7.272-11.21-14.058-140.948,11.029-151.128-1.7-2.484-3.09-2.909,3.575-1.515,5.333C20.223-66.072,150.021-90.857,162.08-75.707Z" transform="translate(16.802 137.6)" fill="#fff"/>
  <g id="Grupo_2" data-name="Grupo 2" transform="translate(20.228 0)">
    <path id="Caminho_1" data-name="Caminho 1" d="M55.476-123.869a109.24,109.24,0,0,1-5.934,9.8,53.74,53.74,0,0,1-6.878,8.316,30.1,30.1,0,0,1-7.642,5.529,13.95,13.95,0,0,1-8.137,1.439,11.75,11.75,0,0,1-7.687-3.641,14.786,14.786,0,0,1-3.416-7.417,29.967,29.967,0,0,1,.09-9.8,57.316,57.316,0,0,1,2.877-10.879,67.348,67.348,0,0,1,4.945-10.519,55.192,55.192,0,0,1,6.249-8.811,29.866,29.866,0,0,1,7.912-6.473,19.057,19.057,0,0,1,7.957-2.472,11.486,11.486,0,0,1,6.878,1.663,11.851,11.851,0,0,1,4.675,5.934l.27-.18a59.121,59.121,0,0,1,6.069.854,24.785,24.785,0,0,0,6.159.4,25.258,25.258,0,0,0,3.372-.4,15.113,15.113,0,0,0,2.967-.854,6.41,6.41,0,0,0,2.113-1.349,2.588,2.588,0,0,0,.809-1.888q0-.719.854-.225a3.891,3.891,0,0,1,1.439,1.573,4.433,4.433,0,0,1,.45,2.562,4.15,4.15,0,0,1-2.023,2.832,6.369,6.369,0,0,1-2.113.719,22.539,22.539,0,0,1-3.057.36q-1.663.09-3.506.045t-3.282-.225q-1.349-.18-3.057-.494t-3.282-.584q-1.573-.27-2.742-.495a11.465,11.465,0,0,0-1.439-.225,11.5,11.5,0,0,1-.854,3.461,10.017,10.017,0,0,1-1.663,2.7A6.015,6.015,0,0,1,52.688-141a3.1,3.1,0,0,1-2.248.135,2.71,2.71,0,0,1-1.708-1.483,4.9,4.9,0,0,1-.4-2.607,8.654,8.654,0,0,1,.989-3.147,11.93,11.93,0,0,1,2.472-3.192,5.42,5.42,0,0,0-3.821-1.439,9.711,9.711,0,0,0-4.136,1.214,20.4,20.4,0,0,0-4.136,2.967q-2.023,1.843-3.911,3.821a39.87,39.87,0,0,0-5.439,7.417,67.555,67.555,0,0,0-4.271,8.766,51.579,51.579,0,0,0-2.7,8.946,34.219,34.219,0,0,0-.764,8,12,12,0,0,0,1.528,5.844,5.275,5.275,0,0,0,4.271,2.562,11.563,11.563,0,0,0,5.709-.944,24.84,24.84,0,0,0,5.484-3.282,36.887,36.887,0,0,0,4.99-4.72,65.424,65.424,0,0,0,4.226-5.3q1.888-2.652,3.237-4.945a37.273,37.273,0,0,0,1.978-3.731q.45-.989.944-1.169a.653.653,0,0,1,.809.225,1.879,1.879,0,0,1,.27,1.259A5.007,5.007,0,0,1,55.476-123.869ZM50.711-142.12a1.345,1.345,0,0,0,1.573-.539,6.061,6.061,0,0,0,.9-1.933,9.545,9.545,0,0,0,.36-2.158q.045-1.034-.135-1.214a1.758,1.758,0,0,0-1.888.4,4.736,4.736,0,0,0-1.214,1.933,5.45,5.45,0,0,0-.315,2.248Q50.081-142.3,50.711-142.12Zm16.453-3.506q-.9,2.877-1.843,5.26t-1.888,4.585q-.944,2.2-1.888,4.36t-1.753,4.585q.719-.989,2.293-2.742a32.681,32.681,0,0,1,4.72-4.091,6.259,6.259,0,0,1,3.147-1.259,5.2,5.2,0,0,1,3.057.539,4.286,4.286,0,0,1,1.978,2.338,6.988,6.988,0,0,1,.09,4.046,31.984,31.984,0,0,1-1.394,4.136q-.944,2.338-2.023,4.72t-2.023,4.54q-.944,2.158-1.394,3.506a6.473,6.473,0,0,0-.36,1.349,1.641,1.641,0,0,0,.045.9q.135.27.629.18a4.023,4.023,0,0,0,1.483-.9,15.748,15.748,0,0,0,2.338-2.607q1.439-1.888,2.877-4.091T78-120.588q1.3-2.113,2.023-3.282a2.094,2.094,0,0,1,1.034-.944.777.777,0,0,1,.809.18,1.434,1.434,0,0,1,.36.944,2.6,2.6,0,0,1-.315,1.349q-.9,1.8-2.248,4.091t-2.922,4.5q-1.573,2.2-3.237,4.136a21.761,21.761,0,0,1-3.192,3.1,8.14,8.14,0,0,1-3.327,1.394,5.908,5.908,0,0,1-3.192-.225,3.913,3.913,0,0,1-2.113-1.933,5.448,5.448,0,0,1-.18-3.731q.27-.9,1.034-3.012t1.753-4.675l1.978-5.125q.989-2.562,1.528-4.181a4.112,4.112,0,0,0,.225-1.888,1.163,1.163,0,0,0-.674-.944,1.7,1.7,0,0,0-1.349.135,5.057,5.057,0,0,0-1.708,1.439q-1.528,1.8-3.1,3.956t-3.911,6.114q-.36.719-1.034,2.113t-1.933,4.99a28.052,28.052,0,0,0-1.034,3.641,3.449,3.449,0,0,0,.225,2.472q.719,1.169-.315,1.169a4.684,4.684,0,0,1-2.427-.9,8.817,8.817,0,0,1-2.472-2.472,4.047,4.047,0,0,1-.45-3.641q2.607-8.541,6.114-17.442t6.293-17.8q.719-2.428,1.079-3.731t.494-2.023a6.442,6.442,0,0,0,.135-1.079v-.809a10.77,10.77,0,0,1,4.271.09,2.743,2.743,0,0,1,1.933,1.663,5.7,5.7,0,0,1,.09,3.057Q67.883-148.054,67.163-145.627ZM89.91-124.5a11.459,11.459,0,0,0,1.573-2.652,7.429,7.429,0,0,0,.629-2.562,3.492,3.492,0,0,0-.4-1.933,1.628,1.628,0,0,0-1.528-.764,3.547,3.547,0,0,0-2.248.989,15.662,15.662,0,0,0-2.248,2.383,27.882,27.882,0,0,0-1.933,2.832q-.854,1.439-1.394,2.338a34.393,34.393,0,0,0-2.383,5.26,20.839,20.839,0,0,0-1.034,5.619,4.542,4.542,0,0,0,1.124,3.821,4.764,4.764,0,0,0,3.1,1.3,7.037,7.037,0,0,0,4.675-1.573,26.044,26.044,0,0,0,4.54-4.226,43.294,43.294,0,0,0,3.776-5.125,38.587,38.587,0,0,0,2.472-4.45,3.155,3.155,0,0,1,1.124-1.573.7.7,0,0,1,.944.09,1.93,1.93,0,0,1,.27,1.439,6.414,6.414,0,0,1-.9,2.472q-.9,1.528-2.113,3.372T95.349-113.8q-1.394,1.8-2.877,3.372a18.429,18.429,0,0,1-2.922,2.562,17.929,17.929,0,0,1-4.36,2.158,14.476,14.476,0,0,1-5.08.854,8.252,8.252,0,0,1-4.45-1.3,6.183,6.183,0,0,1-2.472-4.405,20.041,20.041,0,0,1,.36-7.013,27.72,27.72,0,0,1,2.562-7.013,27.4,27.4,0,0,1,4.181-5.934,13.97,13.97,0,0,1,5.3-3.686,10.122,10.122,0,0,1,5.215-.539,5.816,5.816,0,0,1,3.551,1.933,5.176,5.176,0,0,1,1.034,3.821,9.742,9.742,0,0,1-2.248,5.035,22.207,22.207,0,0,1-5.125,4.81,11.289,11.289,0,0,1-5.394,2.113,1.188,1.188,0,0,1-.944-.36,1.516,1.516,0,0,1-.36-.9,1.805,1.805,0,0,1,.225-1.034,1.407,1.407,0,0,1,.9-.674,17.276,17.276,0,0,0,4.136-1.663A12.692,12.692,0,0,0,89.91-124.5Zm-3.237-18.611a29.4,29.4,0,0,0,3.461-1.843,21.057,21.057,0,0,0,2.832-2.068,6.726,6.726,0,0,0,1.663-2.068,2.1,2.1,0,0,0,.045-1.933q-.36-.629.854-.719A4.7,4.7,0,0,1,98-151.2a4.077,4.077,0,0,1,1.888,1.933q.629,1.3-.809,3.282a12.374,12.374,0,0,1-4.226,3.282,31.485,31.485,0,0,1-6.114,2.472,2.5,2.5,0,0,1-1.888.135,1.889,1.889,0,0,1-.989-.854,1.566,1.566,0,0,1-.09-1.169A1.606,1.606,0,0,1,86.673-143.109Zm22.567,9.44q-.539-.809-.18-1.034a1.623,1.623,0,0,1,1.169-.045,7.435,7.435,0,0,1,1.933.809,11.462,11.462,0,0,1,2.113,1.528,7.727,7.727,0,0,1,1.618,2.068,4.051,4.051,0,0,1,.45,2.517,16.245,16.245,0,0,1-.809,3.147q-.629,1.8-1.439,3.6v.27q0,.45.809.225a4.685,4.685,0,0,0,1.349-.584,4.456,4.456,0,0,0,1.214-1.528,5.423,5.423,0,0,0,.674-1.8q0-.27.45-.18a1.934,1.934,0,0,1,.9.494,2.152,2.152,0,0,1,.629,1.034,1.886,1.886,0,0,1-.27,1.439,5,5,0,0,1-.764,1.169,6.556,6.556,0,0,1-1.843,1.439,7.406,7.406,0,0,1-2.2.9,3.453,3.453,0,0,1-1.573,0,1.23,1.23,0,0,0-.27.045,3.632,3.632,0,0,1-.719.045q-1.259,1.618-2.967,3.506t-3.551,3.641q-1.843,1.753-3.641,3.237a15.527,15.527,0,0,1-3.147,2.113,6.3,6.3,0,0,1-3.012.719,6.641,6.641,0,0,1-3.012-.674,5.319,5.319,0,0,1-2.2-2.113,5.956,5.956,0,0,1-.584-3.776,31.575,31.575,0,0,1,.989-4.091q.719-2.383,1.573-4.72t1.663-4.5a23.883,23.883,0,0,0,1.079-3.506q.27-1.349.539-2.607.18-.989.4-2.068a8.745,8.745,0,0,0,.225-1.618q0-.36,1.169-.36a7.716,7.716,0,0,1,2.562.495,6.569,6.569,0,0,1,2.472,1.573,3.253,3.253,0,0,1,.9,2.787,13.118,13.118,0,0,1-.629,2.293q-.539,1.573-1.394,3.551t-1.8,4.181q-.944,2.2-1.8,4.181t-1.528,3.551a17.427,17.427,0,0,0-.854,2.293,2.326,2.326,0,0,0-.09,1.663,1.35,1.35,0,0,0,.809.764,1.8,1.8,0,0,0,1.124,0,3.093,3.093,0,0,0,1.034-.539,25.6,25.6,0,0,0,2.967-3.372,44.029,44.029,0,0,0,2.652-4q1.214-2.068,2.158-4.091t1.483-3.551a41.16,41.16,0,0,0,1.663-6.293Q110.229-132.321,109.24-133.669Zm21.578,9.171a9.97,9.97,0,0,0,1.888-2.787,7.245,7.245,0,0,0,.674-2.562,2.333,2.333,0,0,0-.539-1.753,1.844,1.844,0,0,0-1.843-.36,4.686,4.686,0,0,0-2.2,1.124,19.1,19.1,0,0,0-2.2,2.2,24.964,24.964,0,0,0-1.933,2.562q-.854,1.3-1.394,2.2a34.391,34.391,0,0,0-2.383,5.26,20.84,20.84,0,0,0-1.034,5.619q-.18,2.607,1.124,3.641a4.84,4.84,0,0,0,3.1,1.034,7.857,7.857,0,0,0,4.63-1.753,26.451,26.451,0,0,0,4.45-4.181,50.92,50.92,0,0,0,3.731-4.945q1.663-2.517,2.652-4.046a4.134,4.134,0,0,1,1.3-1.483q.584-.315.9.09a1.9,1.9,0,0,1,.18,1.394,7.229,7.229,0,0,1-.944,2.427q-.9,1.528-2.113,3.372t-2.607,3.641q-1.394,1.8-2.877,3.372a18.429,18.429,0,0,1-2.922,2.562,17.928,17.928,0,0,1-4.361,2.158,14.475,14.475,0,0,1-5.08.854,8.252,8.252,0,0,1-4.45-1.3,6.183,6.183,0,0,1-2.472-4.405,20.042,20.042,0,0,1,.36-7.013,27.72,27.72,0,0,1,2.562-7.013,27.4,27.4,0,0,1,4.181-5.934,13.97,13.97,0,0,1,5.3-3.686,10.122,10.122,0,0,1,5.215-.539,5.816,5.816,0,0,1,3.551,1.933,5.176,5.176,0,0,1,1.034,3.821,9.742,9.742,0,0,1-2.248,5.035,22.208,22.208,0,0,1-5.125,4.81,11.289,11.289,0,0,1-5.394,2.113,1.188,1.188,0,0,1-.944-.36,1.516,1.516,0,0,1-.36-.9,1.805,1.805,0,0,1,.225-1.034,1.407,1.407,0,0,1,.9-.674A15.233,15.233,0,0,0,130.818-124.5Zm12.317,14.835a23.3,23.3,0,0,1,.989-4.81q.809-2.652,1.843-5.439t2.068-5.394q1.034-2.607,1.753-4.5a.8.8,0,0,0-.36-.944,2.417,2.417,0,0,0-1.349-.45,3.726,3.726,0,0,0-1.663.315,2.212,2.212,0,0,0-1.214,1.169q-.9,1.708-1.394,2.787t-.9,1.888l-.764,1.528q-.36.719-.9,1.618a1.675,1.675,0,0,1-.854.9,1.166,1.166,0,0,1-.9,0,.986.986,0,0,1-.539-.719,2.131,2.131,0,0,1,.225-1.349q.36-.629.989-1.888l1.259-2.517a14.142,14.142,0,0,0,.944-2.338q.315-1.079-.045-1.439A7.481,7.481,0,0,1,140.8-133.4a3.993,3.993,0,0,1-.27-2.517,7.862,7.862,0,0,1,1.933-3.776,9.37,9.37,0,0,1,3.327-2.383,6.05,6.05,0,0,1,3.6-.4,3.992,3.992,0,0,1,2.742,2.158,3.466,3.466,0,0,1,.45,1.708,6.23,6.23,0,0,1-.27,1.8,9.81,9.81,0,0,1-.719,1.753q-.45.854-.9,1.663a25.4,25.4,0,0,1,2.967.18,4.758,4.758,0,0,1,2.517.989,3.125,3.125,0,0,1,1.034,2.472,10.991,10.991,0,0,1-1.394,4.63q-.9,1.8-1.843,3.956t-1.843,4.226q-.9,2.068-1.528,3.776a19.146,19.146,0,0,0-.809,2.607q-.09.45-.18,1.079a3.816,3.816,0,0,0,0,1.169,1.21,1.21,0,0,0,.45.809,1.262,1.262,0,0,0,1.079.09q1.079-.27,2.517-2.427t2.922-4.855q1.484-2.7,2.742-5.26a26.973,26.973,0,0,1,1.978-3.551q.9-1.439,1.753-.944t.225,1.843q-.809,1.708-2.023,4.226t-2.7,5.125a46.822,46.822,0,0,1-3.237,4.945,15.232,15.232,0,0,1-3.641,3.6,7.758,7.758,0,0,1-3.192,1.3,4.7,4.7,0,0,1-2.832-.4,4.4,4.4,0,0,1-1.978-2.113A7.189,7.189,0,0,1,143.135-109.664Zm5.215-27.6q.36-1.259,0-1.708a1.052,1.052,0,0,0-1.034-.36,3.022,3.022,0,0,0-1.394.629,3.918,3.918,0,0,0-1.079,1.169,2.79,2.79,0,0,0-.315,1.439,3.9,3.9,0,0,0,.27,1.259,4.175,4.175,0,0,0,.494.9q.27.36.45.36a1.1,1.1,0,0,0,.674-.4,6.21,6.21,0,0,0,.809-1.034,13.466,13.466,0,0,0,.719-1.259A5.273,5.273,0,0,0,148.35-137.265ZM173.883-124.5a9.97,9.97,0,0,0,1.888-2.787,7.245,7.245,0,0,0,.674-2.562,2.333,2.333,0,0,0-.539-1.753,1.844,1.844,0,0,0-1.843-.36,4.686,4.686,0,0,0-2.2,1.124,19.1,19.1,0,0,0-2.2,2.2,24.962,24.962,0,0,0-1.933,2.562q-.854,1.3-1.394,2.2a34.391,34.391,0,0,0-2.383,5.26,20.841,20.841,0,0,0-1.034,5.619q-.18,2.607,1.124,3.641a4.84,4.84,0,0,0,3.1,1.034,7.857,7.857,0,0,0,4.63-1.753,26.45,26.45,0,0,0,4.45-4.181,50.915,50.915,0,0,0,3.731-4.945q1.663-2.517,2.652-4.046a4.134,4.134,0,0,1,1.3-1.483q.584-.315.9.09a1.9,1.9,0,0,1,.18,1.394,7.229,7.229,0,0,1-.944,2.427q-.9,1.528-2.113,3.372t-2.607,3.641q-1.394,1.8-2.877,3.372a18.427,18.427,0,0,1-2.922,2.562,17.928,17.928,0,0,1-4.36,2.158,14.476,14.476,0,0,1-5.08.854,8.252,8.252,0,0,1-4.45-1.3,6.183,6.183,0,0,1-2.472-4.405,20.041,20.041,0,0,1,.36-7.013,27.718,27.718,0,0,1,2.562-7.013,27.4,27.4,0,0,1,4.181-5.934,13.97,13.97,0,0,1,5.3-3.686,10.122,10.122,0,0,1,5.215-.539,5.816,5.816,0,0,1,3.551,1.933,5.176,5.176,0,0,1,1.034,3.821,9.742,9.742,0,0,1-2.248,5.035,22.208,22.208,0,0,1-5.125,4.81,11.29,11.29,0,0,1-5.394,2.113,1.188,1.188,0,0,1-.944-.36,1.516,1.516,0,0,1-.36-.9,1.805,1.805,0,0,1,.225-1.034,1.407,1.407,0,0,1,.9-.674A15.233,15.233,0,0,0,173.883-124.5Z" transform="translate(-15.421 158.822)" fill="#fff"/>
    <path id="Caminho_5" data-name="Caminho 5" d="M6.023-11.737,4.87-13.35a1.415,1.415,0,0,0,1.08-1.442c0-.975-.7-1.554-1.857-1.554H2.44v4.611h.336v-1.508H4.093a3.255,3.255,0,0,0,.448-.033l1.1,1.541Zm-3.247-1.8v-2.5H4.093c.988,0,1.515.454,1.515,1.251s-.527,1.251-1.515,1.251ZM11.029-11.7a2.308,2.308,0,0,0,2.4-2.338,2.308,2.308,0,0,0-2.4-2.338,2.308,2.308,0,0,0-2.4,2.338A2.308,2.308,0,0,0,11.029-11.7Zm0-.31a1.993,1.993,0,0,1-2.062-2.029,1.993,1.993,0,0,1,2.062-2.029,1.991,1.991,0,0,1,2.055,2.029A1.991,1.991,0,0,1,11.029-12.013Zm7.258.31a1.74,1.74,0,0,0,1.851-1.989v-2.654H19.8v2.641c0,1.153-.547,1.693-1.508,1.693s-1.515-.54-1.515-1.693v-2.641h-.336v2.654A1.736,1.736,0,0,0,18.287-11.7Zm6.962-4.644H23.6v4.611h.336v-1.508h1.317c1.159,0,1.857-.58,1.857-1.548S26.409-16.347,25.249-16.347Zm0,2.8H23.932v-2.5h1.317c.988,0,1.515.454,1.515,1.251S26.237-13.548,25.249-13.548Zm8.095,1.811h.362l-2.121-4.611H31.25l-2.121,4.611h.362l.586-1.3h2.674Zm-3.135-1.581,1.205-2.661,1.212,2.661ZM37.645-11.7c1.139,0,1.66-.566,1.66-1.219,0-1.673-2.878-.856-2.878-2.239,0-.507.4-.922,1.3-.922a2.279,2.279,0,0,1,1.265.389l.125-.27a2.473,2.473,0,0,0-1.39-.415c-1.133,0-1.633.573-1.633,1.225,0,1.7,2.878.869,2.878,2.253,0,.5-.408.9-1.33.9a2.193,2.193,0,0,1-1.522-.58l-.151.25A2.364,2.364,0,0,0,37.645-11.7Zm8.609-.336v-1.89h2.457v-.3H46.254v-1.818H49v-.3H45.918v4.611H49.1v-.3Zm12.989.3h.362l-2.121-4.611h-.336l-2.121,4.611h.362l.586-1.3H58.65Zm-3.135-1.581,1.205-2.661,1.212,2.661ZM64.216-11.7a2.2,2.2,0,0,0,1.64-.645l-.211-.217a1.936,1.936,0,0,1-1.416.553,2,2,0,0,1-2.068-2.029,2,2,0,0,1,2.068-2.029,1.93,1.93,0,0,1,1.416.547l.211-.217a2.2,2.2,0,0,0-1.64-.639,2.3,2.3,0,0,0-2.391,2.338A2.3,2.3,0,0,0,64.216-11.7Zm4.993-.336v-1.89h2.457v-.3H69.208v-1.818h2.747v-.3H68.872v4.611h3.181v-.3Zm7.173.336c1.139,0,1.66-.566,1.66-1.219,0-1.673-2.878-.856-2.878-2.239,0-.507.4-.922,1.3-.922a2.279,2.279,0,0,1,1.265.389l.125-.27a2.473,2.473,0,0,0-1.39-.415c-1.133,0-1.633.573-1.633,1.225,0,1.7,2.878.869,2.878,2.253,0,.5-.408.9-1.33.9a2.193,2.193,0,0,1-1.522-.58l-.151.25A2.364,2.364,0,0,0,76.381-11.7Zm5.9,0c1.139,0,1.66-.566,1.66-1.219,0-1.673-2.878-.856-2.878-2.239,0-.507.4-.922,1.3-.922a2.279,2.279,0,0,1,1.265.389l.125-.27a2.473,2.473,0,0,0-1.39-.415c-1.133,0-1.633.573-1.633,1.225,0,1.7,2.878.869,2.878,2.253,0,.5-.408.9-1.33.9a2.193,2.193,0,0,1-1.522-.58l-.151.25A2.364,2.364,0,0,0,82.283-11.7Zm6.27-5.019h.356l1.034-.777h-.474Zm.375,5.019a2.308,2.308,0,0,0,2.4-2.338,2.308,2.308,0,0,0-2.4-2.338,2.308,2.308,0,0,0-2.4,2.338A2.308,2.308,0,0,0,88.929-11.7Zm0-.31a1.993,1.993,0,0,1-2.062-2.029,1.993,1.993,0,0,1,2.062-2.029,1.991,1.991,0,0,1,2.055,2.029A1.991,1.991,0,0,1,88.929-12.013Zm9.037.277L96.813-13.35a1.415,1.415,0,0,0,1.08-1.442c0-.975-.7-1.554-1.857-1.554H94.382v4.611h.336v-1.508h1.317a3.255,3.255,0,0,0,.448-.033l1.1,1.541Zm-3.247-1.8v-2.5h1.317c.988,0,1.515.454,1.515,1.251s-.527,1.251-1.515,1.251Zm6.3,1.8h.336v-4.611h-.336Zm5.79.033a2.308,2.308,0,0,0,2.4-2.338,2.308,2.308,0,0,0-2.4-2.338,2.308,2.308,0,0,0-2.4,2.338A2.308,2.308,0,0,0,106.8-11.7Zm0-.31a1.993,1.993,0,0,1-2.062-2.029,1.993,1.993,0,0,1,2.062-2.029,1.991,1.991,0,0,1,2.055,2.029A1.991,1.991,0,0,1,106.8-12.013Zm6.666.31c1.139,0,1.66-.566,1.66-1.219,0-1.673-2.878-.856-2.878-2.239,0-.507.4-.922,1.3-.922a2.279,2.279,0,0,1,1.265.389l.125-.27a2.473,2.473,0,0,0-1.39-.415c-1.133,0-1.633.573-1.633,1.225,0,1.7,2.878.869,2.878,2.253,0,.5-.408.9-1.33.9a2.193,2.193,0,0,1-1.522-.58l-.152.25A2.364,2.364,0,0,0,113.47-11.7Z" transform="translate(26.877 84.46)" fill="#fff"/>
  </g>
  <path id="Caminho_7" data-name="Caminho 7" d="M3.262-13.545h.024l.538,1.711q1.213-.012,1.772-.012h.024v.012L4.179-10.783v.012l.55,1.687H4.7q-1.418-1.039-1.418-1.051-.1.067-1.442,1.051H1.82l.562-1.7Q1.056-11.742.928-11.822v-.024H.952q.559,0,1.772.012Q3.262-13.524,3.262-13.545Z" transform="translate(37.91 81.149)" fill="#fff"/>
  <path id="Caminho_6" data-name="Caminho 6" d="M3.262-13.545h.024l.538,1.711q1.213-.012,1.772-.012h.024v.012L4.179-10.783v.012l.55,1.687H4.7q-1.418-1.039-1.418-1.051-.1.067-1.442,1.051H1.82l.562-1.7Q1.056-11.742.928-11.822v-.024H.952q.559,0,1.772.012Q3.262-13.524,3.262-13.545Z" transform="translate(167.337 81.149)" fill="#fff"/>
  <path id="Caminho_3" data-name="Caminho 3" d="M6.383,43.155c1.259-18.88,5.394-27.512,5.394-35.963C11.778,2.338,9.44,0,6.383,0S.989,2.338.989,7.193C.989,15.644,5.125,24.275,6.383,43.155ZM5.394,63.834a5.394,5.394,0,0,0,0-10.789,5.394,5.394,0,0,0,0,10.789Z" transform="matrix(0.966, 0.259, -0.259, 0.966, 200.384, 6.721)" fill="#fff"/>
  <path id="Caminho_4" data-name="Caminho 4" d="M6.383,43.155c1.259-18.88,5.394-27.512,5.394-35.963C11.778,2.338,9.44,0,6.383,0S.989,2.338.989,7.193C.989,15.644,5.125,24.275,6.383,43.155ZM5.394,63.834a5.394,5.394,0,0,0,0-10.789,5.394,5.394,0,0,0,0,10.789Z" transform="matrix(-0.966, -0.259, 0.259, -0.966, 11.377, 66.932)" fill="#fff"/>
</svg>
