<svg id="_5" data-name="5" xmlns="http://www.w3.org/2000/svg" width="237.421" height="88.412" viewBox="0 0 237.421 88.412">
  <g id="dewtech" transform="translate(0 0)">
    <g id="Grupo_1" data-name="Grupo 1" transform="translate(0 0)">
      <path id="Ret창ngulo_2" data-name="Ret창ngulo 2" d="M0,0H29.577A33.393,33.393,0,0,1,62.97,33.393v0A33.393,33.393,0,0,1,29.577,66.786H0a0,0,0,0,1,0,0V0A0,0,0,0,1,0,0Z" transform="translate(13.357 10.813)" fill="#fff"/>
      <path id="Caminho_1" data-name="Caminho 1" d="M564.407,501.089a49.591,49.591,0,0,1,18.394-6.372c10.309-1.262,22.842,1.322,22.842,1.322s-2.284-.03-5.891,6.131-5.676,13.935-8.536,18.514c-5.2,8.325-7.213,7.934-7.213,7.934l-23.443,6.131s-3.486-2.885-2.525-9.017S564.407,501.089,564.407,501.089Z" transform="translate(-550.702 -451.268)"/>
      <g id="Ret창ngulo_1" data-name="Ret창ngulo 1" fill="none" stroke="#fff" stroke-width="8">
        <path d="M0,0H44.206A44.206,44.206,0,0,1,88.412,44.206v0A44.206,44.206,0,0,1,44.206,88.412h0A44.206,44.206,0,0,1,0,44.206V0A0,0,0,0,1,0,0Z" stroke="none"/>
        <path d="M5.386,4H44.206A40.206,40.206,0,0,1,84.412,44.206v0A40.206,40.206,0,0,1,44.206,84.412h0A40.206,40.206,0,0,1,4,44.206V5.386A1.386,1.386,0,0,1,5.386,4Z" fill="none"/>
      </g>
    </g>
  </g>
  <path id="Caminho_18" data-name="Caminho 18" d="M20.164-15.177H7.62v1.631H23.173v4.314H5.553q-3.843,0-3.843-3.517v-9.173q0-3.444,3.843-3.444h17.62v4.242H7.62v5.112l1.559-3.444H22.049Zm13.668.616q-.181.761-1.269.943-1.305-.218-1.305-1.233V-25.365h-5.91V-13.8q0,4.568,5.62,4.568h3.19q5.62,0,5.62-4.568v-6.272a1.251,1.251,0,0,1,1.233-.906q1.088.145,1.305.906V-13.8q0,4.568,5.62,4.568h3.19q5.62,0,5.62-4.568V-25.365h-5.91v10.514q0,1.015-1.305,1.233-1.088-.181-1.269-.943v-6.707a4.215,4.215,0,0,0-.689-2.175,1.988,1.988,0,0,0-.743-.906,4.584,4.584,0,0,0-1.2-.58,8.51,8.51,0,0,0-1.45-.326,11.14,11.14,0,0,0-1.541-.109H39.2q-.036,0-.308.018t-.616.054q-.344.036-.653.073a2.484,2.484,0,0,0-.417.073,6,6,0,0,0-1.559.671,2.868,2.868,0,0,0-1.124,1.033,4.964,4.964,0,0,0-.689,2.647Zm31.687-6.562H58.377l1.849-4.242H78.644l-1.813,4.242h-5.4V-9.231h-5.91Zm33.21,5.946H86.185v1.631h15.553v4.314H84.118q-3.843,0-3.843-3.517v-9.173q0-3.444,3.843-3.444h17.62v4.242H86.185v5.112l1.559-3.444h12.871Zm9.028-10.188h17.62v4.242H109.823v7.577h15.553v4.314h-17.62q-3.843,0-3.843-3.517v-9.173Q103.913-25.365,107.756-25.365Zm19.8,0h5.91v9.39l1.922-3.48h8.339v-5.91h5.91V-9.231h-5.91v-5.946h-10.26v5.946h-5.91Z" transform="translate(87.789 67.749)" fill="#fff"/>
</svg>
