<svg width="88" height="17" viewBox="0 0 88 17" fill="none" xmlns="http://www.w3.org/2000/svg">
<path d="M9.15554 3.84549L8.68001 2.38197L8.20448 3.84549L7.0415 7.42479L3.278 7.42479H1.73916L2.98411 8.3293L6.02884 10.5414L4.86586 14.1207L4.39033 15.5842L5.63528 14.6797L8.68001 12.4676L11.7247 14.6797L12.9697 15.5842L12.4942 14.1207L11.3312 10.5414L14.3759 8.3293L15.6209 7.42479H14.082L10.3185 7.42479L9.15554 3.84549Z" fill="#F4FD6B" stroke="#F4FD6B"/>
<path d="M26.7078 3.83684L26.2352 2.4678L25.7626 3.83684L24.5239 7.42479L20.4956 7.42479H18.8786L20.2133 8.33752L23.4457 10.5479L22.2153 14.1121L21.7218 15.5416L22.9701 14.688L26.2352 12.4553L29.5003 14.688L30.7486 15.5416L30.2551 14.1121L29.0247 10.5479L32.2571 8.33752L33.5919 7.42479H31.9748L27.9465 7.42479L26.7078 3.83684Z" fill="#F4FD6B" stroke="#F4FD6B"/>
<path d="M44.9754 3.84549L44.4998 2.38197L44.0243 3.84549L42.8613 7.42479L39.0978 7.42479H37.559L38.8039 8.3293L41.8487 10.5414L40.6857 14.1207L40.2102 15.5842L41.4551 14.6797L44.4998 12.4676L47.5446 14.6797L48.7895 15.5842L48.314 14.1207L47.151 10.5414L50.1957 8.3293L51.4407 7.42479H49.9018L46.1383 7.42479L44.9754 3.84549Z" fill="#F4FD6B" stroke="#F4FD6B"/>
<path d="M63.2376 3.83684L62.765 2.4678L62.2924 3.83684L61.0537 7.42479L57.0254 7.42479H55.4083L56.7431 8.33752L59.9755 10.5479L58.7451 14.1121L58.2516 15.5416L59.4999 14.688L62.765 12.4553L66.0301 14.688L67.2784 15.5416L66.7849 14.1121L65.5544 10.5479L68.7869 8.33752L70.1216 7.42479H68.5046L64.4763 7.42479L63.2376 3.83684Z" fill="#F4FD6B" stroke="#F4FD6B"/>
<path d="M79.7957 3.84549L79.3201 2.38197L78.8446 3.84549L77.6816 7.42479L73.9181 7.42479H72.3793L73.6242 8.3293L76.669 10.5414L75.506 14.1207L75.0305 15.5842L76.2754 14.6797L79.3201 12.4676L82.3649 14.6797L83.6098 15.5842L83.1343 14.1207L81.9713 10.5414L85.016 8.3293L86.261 7.42479H84.7222L80.9587 7.42479L79.7957 3.84549Z" fill="#F4FD6B" stroke="#F4FD6B"/>
</svg>
