<svg id="_6" data-name="6" xmlns="http://www.w3.org/2000/svg" width="186.083" height="64.518" viewBox="0 0 186.083 64.518">
  <g id="Camada_1" data-name="Camada 1" transform="translate(0 0)">
    <g id="Grupo_2" data-name="Grupo 2" transform="translate(0 0)">
      <g id="Grupo_1" data-name="Grupo 1">
        <ellipse id="Elipse_3" data-name="Elipse 3" cx="17.042" cy="17.042" rx="17.042" ry="17.042" transform="translate(10.745)" fill="#fff" opacity="0.34"/>
        <ellipse id="Elipse_4" data-name="Elipse 4" cx="17.042" cy="17.042" rx="17.042" ry="17.042" transform="translate(53.723 17.041)" fill="#fff" opacity="0.34"/>
        <ellipse id="Elipse_1" data-name="Elipse 1" cx="25.047" cy="25.047" rx="25.047" ry="25.047" transform="translate(28.63 0.843)" fill="#fff"/>
        <ellipse id="Elipse_2" data-name="Elipse 2" cx="17.042" cy="17.042" rx="17.042" ry="17.042" transform="translate(0 16.694)" fill="#fff"/>
        <rect id="Retângulo_1" data-name="Retângulo 1" width="42.998" height="12.308" rx="6.154" transform="translate(15.025 38.496)" fill="#fff"/>
      </g>
      <g id="databackup" transform="translate(14.819 16.556)">
        <g id="Grupo_2-2" data-name="Grupo 2">
          <path id="Caminho_8" data-name="Caminho 8" d="M147.682,172.291h-4.4l-1.111-2.73h-.255a6.568,6.568,0,0,1-5.967,3.106,6.844,6.844,0,0,1-5.827-2.88Q128,166.906,128,161.8q0-5.177,2.156-8.066a7.017,7.017,0,0,1,5.939-2.894,6.864,6.864,0,0,1,6.061,3.087h.189a23.488,23.488,0,0,1-.433-4.2V143h5.77v29.291m-9.713-4.2a3.893,3.893,0,0,0,3.228-1.28,7.429,7.429,0,0,0,1.121-4.348v-.621q0-3.39-1.042-4.857a3.883,3.883,0,0,0-3.4-1.469,3.37,3.37,0,0,0-2.984,1.629,8.708,8.708,0,0,0-1.072,4.725,8.226,8.226,0,0,0,1.073,4.659,3.522,3.522,0,0,0,3.069,1.557Z" transform="translate(-128 -143)"/>
          <path id="Caminho_9" data-name="Caminho 9" d="M300.634,231.826l-1.11-2.862h-.15a8.5,8.5,0,0,1-2.985,2.526,9.643,9.643,0,0,1-4,.706,6.459,6.459,0,0,1-4.772-1.737,6.646,6.646,0,0,1-1.737-4.932,5.555,5.555,0,0,1,2.344-4.941q2.344-1.592,7.068-1.76l3.653-.116v-.926q0-3.2-3.276-3.2a14.926,14.926,0,0,0-5.929,1.525l-1.9-3.877a17.123,17.123,0,0,1,8.058-1.9q4.235,0,6.494,1.845a6.834,6.834,0,0,1,2.26,5.62v14.031Zm-1.694-9.752-2.222.075a7.118,7.118,0,0,0-3.727.9,2.839,2.839,0,0,0-1.224,2.52q0,2.431,2.786,2.431a4.41,4.41,0,0,0,3.191-1.148,4.038,4.038,0,0,0,1.2-3.049Z" transform="translate(-267.601 -202.535)"/>
          <path id="Caminho_10" data-name="Caminho 10" d="M439.684,196.8a12.445,12.445,0,0,0,3.613-.659v4.273a12.879,12.879,0,0,1-5.27.96q-3.445,0-5.018-1.737a7.579,7.579,0,0,1-1.571-5.233V184.261H428.69v-2.431l3.162-1.917,1.657-4.442h3.669v4.479h5.892v4.311h-5.892V194.4a2.242,2.242,0,0,0,.686,1.807A2.733,2.733,0,0,0,439.684,196.8Z" transform="translate(-393.878 -171.711)"/>
          <path id="Caminho_11" data-name="Caminho 11" d="M542.424,231.826l-1.111-2.862h-.15a8.49,8.49,0,0,1-2.984,2.526,9.643,9.643,0,0,1-4,.706,6.461,6.461,0,0,1-4.772-1.737,6.64,6.64,0,0,1-1.737-4.932,5.556,5.556,0,0,1,2.343-4.941q2.343-1.592,7.069-1.76l3.651-.116v-.926q0-3.2-3.275-3.2a14.927,14.927,0,0,0-5.93,1.525l-1.9-3.877a17.121,17.121,0,0,1,8.057-1.9q4.235,0,6.5,1.845a6.814,6.814,0,0,1,2.259,5.609v14.041Zm-1.695-9.752-2.221.075a7.126,7.126,0,0,0-3.728.9,2.835,2.835,0,0,0-1.224,2.52q0,2.431,2.787,2.431a4.41,4.41,0,0,0,3.191-1.148,4.034,4.034,0,0,0,1.195-3.049Z" transform="translate(-481.398 -202.535)"/>
        </g>
        <g id="Grupo_3" data-name="Grupo 3" transform="translate(64.932)">
          <path id="Caminho_12" data-name="Caminho 12" d="M688.85,161.95V143h5.741v6.815q0,1.3-.232,4.16h.232a6.641,6.641,0,0,1,5.967-3.126,6.806,6.806,0,0,1,5.836,2.908q2.107,2.908,2.108,7.972,0,5.21-2.174,8.075a7.6,7.6,0,0,1-11.737.166h-.4l-.961,2.316H688.85V161.95m9.864-6.513a3.627,3.627,0,0,0-3.106,1.308,7.5,7.5,0,0,0-1.016,4.316v.621a8.893,8.893,0,0,0,1.007,4.863,3.571,3.571,0,0,0,3.191,1.463,3.2,3.2,0,0,0,2.813-1.621,8.808,8.808,0,0,0,1.042-4.734,8.351,8.351,0,0,0-1.054-4.659A3.313,3.313,0,0,0,698.714,155.436Z" transform="translate(-688.85 -143)" fill="#fff"/>
          <path id="Caminho_13" data-name="Caminho 13" d="M850.384,231.905l-1.11-2.862h-.151a8.5,8.5,0,0,1-2.984,2.526,9.64,9.64,0,0,1-4,.706,6.458,6.458,0,0,1-4.772-1.737,6.646,6.646,0,0,1-1.737-4.932,5.554,5.554,0,0,1,2.344-4.941q2.344-1.592,7.062-1.76l3.653-.116v-.926q0-3.2-3.275-3.2a14.926,14.926,0,0,0-5.93,1.525l-1.9-3.867a17.123,17.123,0,0,1,8.058-1.9q4.235,0,6.494,1.845a6.819,6.819,0,0,1,2.259,5.609v14.031Zm-1.694-9.752-2.222.075a7.118,7.118,0,0,0-3.727.9,2.838,2.838,0,0,0-1.224,2.52q0,2.431,2.786,2.431a4.411,4.411,0,0,0,3.191-1.148,4.038,4.038,0,0,0,1.2-3.049Z" transform="translate(-818.636 -202.614)" fill="#fff"/>
          <path id="Caminho_14" data-name="Caminho 14" d="M995.586,232.568q-9.826,0-9.826-10.787,0-5.364,2.672-8.2t7.66-2.833a14.6,14.6,0,0,1,6.552,1.431l-1.689,4.442q-1.355-.545-2.523-.894a8.1,8.1,0,0,0-2.334-.347q-4.48,0-4.48,6.368,0,6.173,4.48,6.174a10.21,10.21,0,0,0,3.069-.442,11.064,11.064,0,0,0,2.823-1.389V231a9.235,9.235,0,0,1-2.813,1.224A15.863,15.863,0,0,1,995.586,232.568Z" transform="translate(-951.385 -202.906)" fill="#fff"/>
          <path id="Caminho_15" data-name="Caminho 15" d="M1121.622,160.84l2.5-3.2,5.892-6.4h6.475l-8.356,9.128L1137,172.291h-6.626l-6.058-8.534-2.466,1.976v6.557h-5.741V143h5.741v13.058l-.3,4.781Z" transform="translate(-1066.644 -143)" fill="#fff"/>
          <path id="Caminho_16" data-name="Caminho 16" d="M1284.682,235.212l-.772-2.692h-.3a6.065,6.065,0,0,1-2.617,2.268,8.936,8.936,0,0,1-3.859.8,7.36,7.36,0,0,1-5.592-1.986,7.959,7.959,0,0,1-1.881-5.713V214.16h5.741v12.293a5.9,5.9,0,0,0,.81,3.416,2.951,2.951,0,0,0,2.579,1.139,3.878,3.878,0,0,0,3.482-1.609q1.073-1.609,1.072-5.337v-9.9h5.743v21.052Z" transform="translate(-1202.417 -205.921)" fill="#fff"/>
          <path id="Caminho_17" data-name="Caminho 17" d="M1449.1,232.559a6.985,6.985,0,0,1-5.816-2.692h-.3q.3,2.636.3,3.049v8.534h-5.741V211.136h4.668l.81,2.73h.263a6.641,6.641,0,0,1,5.967-3.126,6.829,6.829,0,0,1,5.836,2.88q2.108,2.88,2.108,8a15.788,15.788,0,0,1-.989,5.855,8.242,8.242,0,0,1-2.813,3.787A7.225,7.225,0,0,1,1449.1,232.559Zm-1.694-17.225a3.626,3.626,0,0,0-3.106,1.308,7.5,7.5,0,0,0-1.016,4.316v.621a8.892,8.892,0,0,0,1.007,4.863,3.571,3.571,0,0,0,3.191,1.463q3.859,0,3.859-6.368a9.086,9.086,0,0,0-.95-4.659,3.228,3.228,0,0,0-2.984-1.544Z" transform="translate(-1350.861 -202.897)" fill="#fff"/>
        </g>
      </g>
      <path id="Polígono_3" data-name="Polígono 3" d="M223.671,42.55l6.473,11.135H217.2Z" transform="translate(-192.054 -37.624)" fill="#fff"/>
      <path id="Polígono_1" data-name="Polígono 1" d="M223.671,60.45l6.473,11.135H217.2Z" transform="translate(-192.054 -53.451)"/>
      <path id="Polígono_2" data-name="Polígono 2" d="M1412.751,472.216l-6.471-11.136h12.941Z" transform="translate(-1243.469 -407.699)" fill="#fff"/>
    </g>
  </g>
</svg>
