<svg xmlns="http://www.w3.org/2000/svg" width="156.076" height="60.492" viewBox="0 0 156.076 60.492">
  <g id="_8" data-name="8" opacity="0.8">
    <path id="Caminho_1" data-name="Caminho 1" d="M25.52-141.572v-25.886c0-7.337.692-9.9,4.153-13.843h-18c3.461,3.945,4.153,6.506,4.153,13.843v24.5c0,10.936-1.869,19.172-14.535,22.148C18.875-120.808,25.52-129.113,25.52-141.572Zm8.79,8.721h18c-3.807-3.945-4.5-6.506-4.5-13.843v-13.843c0-7.337.692-9.9,4.5-13.843h-18c3.807,3.945,4.5,6.506,4.5,13.843v13.843C38.809-139.357,38.116-136.8,34.31-132.851Zm33.914-41.528H57.843c6.229,2.076,8.306,4.153,10.382,10.382ZM51.613-154.1c3.046.208,7.96,2.215,10.382,5.191V-159.29C59.642-156.314,54.658-154.307,51.613-154.1Zm16.611,21.248v-10.382c-2.076,6.229-4.153,8.306-10.381,10.382Zm15.227-41.528c-5.745,0-9.275,3.391-9.275,8.79,0,6.022,4.983,8.582,15.158,14.673,12.874,7.683,17.649,9.69,11.835,18.065,6.575,0,11.9-3.461,11.9-9,0-6.506-7.821-10.8-16.334-15.988C86.912-163.789,79.506-166.834,83.451-174.379Zm26.162,0H99.232c6.229,2.076,8.306,4.153,10.382,10.382ZM75.56-132.851H89.4c-7.613-2.076-11.766-6.229-13.843-13.843Zm52.187-41.528c-5.745,0-9.275,3.391-9.275,8.79,0,6.022,4.983,8.582,15.158,14.673,12.874,7.683,17.649,9.69,11.835,18.065,6.576,0,11.9-3.461,11.9-9,0-6.506-7.821-10.8-16.334-15.988C131.208-163.789,123.8-166.834,127.747-174.379Zm26.162,0H143.528c6.229,2.076,8.306,4.153,10.382,10.382Zm-34.052,41.528H133.7c-7.613-2.076-11.766-6.229-13.843-13.843Z" transform="translate(-1.295 181.3)" fill="#fff"/>
    <path id="Caminho_2" data-name="Caminho 2" d="M1.957-11v1.482H1.494v-3.417h1.17a1.3,1.3,0,0,1,.857.249.892.892,0,0,1,.3.723.775.775,0,0,1-.137.458.931.931,0,0,1-.4.31.7.7,0,0,1,.406.3.973.973,0,0,1,.123.508v.321a1.071,1.071,0,0,0,.035.286.43.43,0,0,0,.122.207v.059H3.488a.383.383,0,0,1-.117-.235,1.94,1.94,0,0,1-.027-.321v-.311a.618.618,0,0,0-.162-.446A.574.574,0,0,0,2.748-11Zm0-.364h.661a.859.859,0,0,0,.565-.149.568.568,0,0,0,.173-.454.586.586,0,0,0-.168-.447.74.74,0,0,0-.523-.158H1.957Zm8.851.441a1.459,1.459,0,0,1-.389,1.041,1.322,1.322,0,0,1-1.009.413,1.253,1.253,0,0,1-.974-.413,1.491,1.491,0,0,1-.374-1.041v-.608a1.5,1.5,0,0,1,.374-1.041,1.25,1.25,0,0,1,.974-.416,1.32,1.32,0,0,1,1.009.414,1.463,1.463,0,0,1,.389,1.042Zm-.463-.613a1.154,1.154,0,0,0-.254-.77.846.846,0,0,0-.681-.3.784.784,0,0,0-.646.3,1.194,1.194,0,0,0-.241.77v.613a1.2,1.2,0,0,0,.241.775.784.784,0,0,0,.646.3.846.846,0,0,0,.682-.3,1.163,1.163,0,0,0,.253-.775Zm7.294-1.4v2.271a1.1,1.1,0,0,1-.366.882,1.391,1.391,0,0,1-.945.317,1.313,1.313,0,0,1-.911-.318,1.122,1.122,0,0,1-.354-.88v-2.271h.463v2.271a.825.825,0,0,0,.223.615.788.788,0,0,0,.578.222.857.857,0,0,0,.613-.222.8.8,0,0,0,.236-.615v-2.271Zm4.837,2.048v1.373h-.463v-3.421h1.309a1.205,1.205,0,0,1,.851.282.964.964,0,0,1,.3.743.962.962,0,0,1-.3.745,1.212,1.212,0,0,1-.851.28Zm0-.362h.846a.671.671,0,0,0,.519-.187.669.669,0,0,0,.172-.471.68.68,0,0,0-.173-.474.665.665,0,0,0-.518-.19h-.846Zm7.679.852H28.867l-.305.882h-.472l1.233-3.421h.4l1.208,3.421h-.472ZM29-10.786h1.022l-.5-1.468H29.51Zm7.892.407a.514.514,0,0,0-.167-.39,1.39,1.39,0,0,0-.588-.267,1.955,1.955,0,0,1-.814-.381.8.8,0,0,1-.292-.632.843.843,0,0,1,.315-.668,1.218,1.218,0,0,1,.817-.267,1.194,1.194,0,0,1,.861.307.928.928,0,0,1,.311.715l-.007.014h-.441a.631.631,0,0,0-.2-.481.731.731,0,0,0-.52-.19.712.712,0,0,0-.5.157.528.528,0,0,0-.173.409.456.456,0,0,0,.189.372,1.744,1.744,0,0,0,.615.262,1.744,1.744,0,0,1,.787.395.859.859,0,0,1,.27.643.8.8,0,0,1-.325.665,1.35,1.35,0,0,1-.849.251,1.443,1.443,0,0,1-.875-.277.845.845,0,0,1-.367-.742l0-.014h.441a.575.575,0,0,0,.244.5.925.925,0,0,0,.552.175.83.83,0,0,0,.52-.148A.481.481,0,0,0,36.893-10.379ZM48.357-11.1H46.952v1.224H48.6v.362H46.489v-3.421H48.57v.364H46.952v1.106h1.4Zm11.03.7H58.1l-.305.882h-.472l1.233-3.421h.4l1.208,3.421h-.472Zm-1.153-.387h1.022l-.5-1.468h-.014Zm8.484.174,0,.014a1.027,1.027,0,0,1-.338.806,1.293,1.293,0,0,1-.918.325,1.206,1.206,0,0,1-.945-.411,1.512,1.512,0,0,1-.365-1.042v-.609a1.516,1.516,0,0,1,.365-1.044,1.2,1.2,0,0,1,.945-.412,1.328,1.328,0,0,1,.923.309,1.021,1.021,0,0,1,.334.819l0,.014h-.444a.763.763,0,0,0-.211-.568.812.812,0,0,0-.6-.209.729.729,0,0,0-.618.312,1.271,1.271,0,0,0-.23.775v.613a1.279,1.279,0,0,0,.23.78.729.729,0,0,0,.618.312.815.815,0,0,0,.6-.208.769.769,0,0,0,.211-.574Zm6.114-.49h-1.4v1.224h1.644v.362H70.966v-3.421h2.081v.364H71.428v1.106h1.4Zm6.251.723a.514.514,0,0,0-.167-.39,1.39,1.39,0,0,0-.588-.267,1.955,1.955,0,0,1-.814-.381.8.8,0,0,1-.292-.632.843.843,0,0,1,.315-.668,1.218,1.218,0,0,1,.817-.267,1.194,1.194,0,0,1,.861.307.928.928,0,0,1,.311.713l-.007.014h-.441a.631.631,0,0,0-.2-.481.731.731,0,0,0-.52-.19.712.712,0,0,0-.5.157.527.527,0,0,0-.173.409.456.456,0,0,0,.189.372,1.744,1.744,0,0,0,.615.262,1.743,1.743,0,0,1,.787.395.859.859,0,0,1,.27.643.8.8,0,0,1-.325.665,1.35,1.35,0,0,1-.849.251,1.443,1.443,0,0,1-.876-.278.845.845,0,0,1-.367-.742l0-.014h.443a.575.575,0,0,0,.244.5.925.925,0,0,0,.552.175.83.83,0,0,0,.52-.148A.481.481,0,0,0,79.084-10.379Zm6.582,0a.514.514,0,0,0-.167-.39,1.39,1.39,0,0,0-.588-.267,1.955,1.955,0,0,1-.814-.381.8.8,0,0,1-.292-.632.843.843,0,0,1,.315-.668,1.218,1.218,0,0,1,.817-.267,1.194,1.194,0,0,1,.861.307.928.928,0,0,1,.311.715l-.007.014h-.441a.631.631,0,0,0-.2-.481.731.731,0,0,0-.52-.19.712.712,0,0,0-.5.157.527.527,0,0,0-.173.409.456.456,0,0,0,.189.372,1.744,1.744,0,0,0,.615.262,1.743,1.743,0,0,1,.787.395.859.859,0,0,1,.27.641.8.8,0,0,1-.325.665,1.35,1.35,0,0,1-.849.251,1.443,1.443,0,0,1-.875-.277.845.845,0,0,1-.367-.742l0-.014h.441a.575.575,0,0,0,.244.5.925.925,0,0,0,.552.175.83.83,0,0,0,.52-.148.481.481,0,0,0,.192-.4Zm7.371-.542a1.459,1.459,0,0,1-.389,1.041,1.322,1.322,0,0,1-1.009.413,1.253,1.253,0,0,1-.974-.413,1.491,1.491,0,0,1-.374-1.041v-.608a1.5,1.5,0,0,1,.374-1.041,1.25,1.25,0,0,1,.974-.416,1.32,1.32,0,0,1,1.009.415,1.463,1.463,0,0,1,.389,1.042Zm-.463-.613a1.154,1.154,0,0,0-.254-.77.846.846,0,0,0-.681-.3.784.784,0,0,0-.645.3,1.194,1.194,0,0,0-.241.77v.613a1.2,1.2,0,0,0,.241.775.784.784,0,0,0,.645.3.846.846,0,0,0,.682-.3,1.163,1.163,0,0,0,.253-.775ZM97.808-11v1.483h-.463v-3.417h1.17a1.3,1.3,0,0,1,.857.249.892.892,0,0,1,.3.723.775.775,0,0,1-.137.458.931.931,0,0,1-.4.31.7.7,0,0,1,.405.3.973.973,0,0,1,.123.508v.321a1.072,1.072,0,0,0,.035.286.43.43,0,0,0,.122.207v.058h-.477a.383.383,0,0,1-.117-.235,1.94,1.94,0,0,1-.027-.321v-.311a.618.618,0,0,0-.162-.446A.574.574,0,0,0,98.6-11Zm0-.364h.66a.859.859,0,0,0,.565-.149.568.568,0,0,0,.173-.454.585.585,0,0,0-.168-.447.74.74,0,0,0-.523-.158h-.707Zm6.751,1.847h-.465v-3.421h.465Zm7.1-1.4a1.459,1.459,0,0,1-.389,1.041,1.322,1.322,0,0,1-1.009.413,1.253,1.253,0,0,1-.974-.413,1.491,1.491,0,0,1-.374-1.041v-.608a1.5,1.5,0,0,1,.374-1.041,1.25,1.25,0,0,1,.974-.416,1.32,1.32,0,0,1,1.009.414,1.463,1.463,0,0,1,.389,1.042Zm-.463-.613a1.154,1.154,0,0,0-.254-.77.846.846,0,0,0-.681-.3.784.784,0,0,0-.645.3,1.194,1.194,0,0,0-.241.77v.613a1.2,1.2,0,0,0,.241.775.784.784,0,0,0,.645.3.846.846,0,0,0,.682-.3,1.163,1.163,0,0,0,.253-.775Zm6.594,1.156a.514.514,0,0,0-.167-.39,1.39,1.39,0,0,0-.588-.267,1.955,1.955,0,0,1-.814-.381.8.8,0,0,1-.292-.632.843.843,0,0,1,.315-.668,1.218,1.218,0,0,1,.817-.267,1.194,1.194,0,0,1,.861.307.928.928,0,0,1,.311.715l-.007.014h-.441a.631.631,0,0,0-.2-.481.731.731,0,0,0-.52-.19.712.712,0,0,0-.5.157.527.527,0,0,0-.173.409.456.456,0,0,0,.189.372,1.744,1.744,0,0,0,.615.262,1.743,1.743,0,0,1,.787.395.859.859,0,0,1,.27.643.8.8,0,0,1-.325.662,1.35,1.35,0,0,1-.849.251,1.443,1.443,0,0,1-.875-.277.845.845,0,0,1-.367-.742l0-.014h.441a.575.575,0,0,0,.244.5.925.925,0,0,0,.552.175.83.83,0,0,0,.52-.148A.481.481,0,0,0,117.791-10.379Z" transform="translate(30.44 66.497)" fill="#fff"/>
  </g>
</svg>
