<svg xmlns="http://www.w3.org/2000/svg" width="65.371" height="86.309" viewBox="0 0 65.371 86.309">
  <g id="_9" data-name="9" transform="translate(-213.734 -236.784)">
    <path id="_9-2" data-name="9" d="M-105.064-257.25V-230l-4.169,1.932,4.169,1.932v40.065h-5.186v-36.709l-5.186-2.441v39.15h-5.288V-257.25h5.288v26.337l5.186-2.44v-23.9Zm3.661,0h5.288v71.181H-101.4Zm24.507,0v71.181h-5.186v-66h-5.186v66h-5.288V-257.25Zm19.321,0v15.762l-5.186,2.441v-13.016h-5.186v21.151l10.372-4.779v49.623h-15.66V-257.25Zm-10.372,66h5.186v-36.3l-5.186,2.339Z" transform="translate(335.535 494.034)" fill="#fff"/>
    <path id="Caminho_1" data-name="Caminho 1" d="M3.7,0H.734V-5.6H3.578v.594H1.391v1.863H3.414v.59H1.391V-.594H3.7ZM9.3,0h-.8L5.609-4.465a1.866,1.866,0,0,1-.18-.352H5.406a5.767,5.767,0,0,1,.031.77V0H4.781V-5.6h.852l2.8,4.395q.176.273.227.375H8.68a5.927,5.927,0,0,1-.039-.824V-5.6H9.3Zm4.781-5.008H12.461V0H11.8V-5.008H10.191V-5.6h3.887ZM18.973,0h-.781l-.937-1.57A3.42,3.42,0,0,0,17-1.943a1.425,1.425,0,0,0-.248-.252.859.859,0,0,0-.273-.143,1.124,1.124,0,0,0-.33-.045h-.539V0h-.656V-5.6h1.672a2.383,2.383,0,0,1,.678.092,1.516,1.516,0,0,1,.539.279,1.3,1.3,0,0,1,.357.467,1.548,1.548,0,0,1,.129.654,1.576,1.576,0,0,1-.088.537,1.4,1.4,0,0,1-.25.436,1.515,1.515,0,0,1-.391.326,1.994,1.994,0,0,1-.514.209v.016a1.181,1.181,0,0,1,.244.143,1.344,1.344,0,0,1,.2.189,2.509,2.509,0,0,1,.186.248q.092.139.205.322ZM15.613-5.008v2.031H16.5a1.351,1.351,0,0,0,.455-.074,1.054,1.054,0,0,0,.361-.213.965.965,0,0,0,.238-.34,1.138,1.138,0,0,0,.086-.451.878.878,0,0,0-.291-.7,1.25,1.25,0,0,0-.842-.252ZM22.711,0H19.742V-5.6h2.844v.594H20.4v1.863h2.023v.59H20.4V-.594h2.313ZM27.1-5.008H25.484V0h-.656V-5.008H23.215V-5.6H27.1ZM30.949,0H27.98V-5.6h2.844v.594H28.637v1.863H30.66v.59H28.637V-.594h2.313Zm5.594,0h-.8L32.855-4.465a1.866,1.866,0,0,1-.18-.352h-.023a5.767,5.767,0,0,1,.031.77V0h-.656V-5.6h.852l2.8,4.395q.176.273.227.375h.016a5.926,5.926,0,0,1-.039-.824V-5.6h.656Zm2.125,0h-.656V-5.6h.656Zm7.184,0H45.2V-3.758q0-.445.055-1.09h-.016a3.484,3.484,0,0,1-.168.543L43.156,0h-.32l-1.91-4.273a3.348,3.348,0,0,1-.168-.574h-.016q.031.336.031,1.1V0h-.633V-5.6h.867L42.727-1.7a5,5,0,0,1,.258.672h.023q.168-.461.27-.687L45.031-5.6h.82Zm4.441,0H47.324V-5.6h2.844v.594H47.98v1.863H50v.59H47.98V-.594h2.313Zm5.594,0h-.8L52.2-4.465a1.866,1.866,0,0,1-.18-.352H52a5.767,5.767,0,0,1,.031.77V0h-.656V-5.6h.852l2.8,4.395q.176.273.227.375h.016a5.926,5.926,0,0,1-.039-.824V-5.6h.656Zm4.781-5.008H59.051V0h-.656V-5.008H56.781V-5.6h3.887Zm2.766,5.1a2.459,2.459,0,0,1-1.908-.785,2.912,2.912,0,0,1-.717-2.043,3.086,3.086,0,0,1,.73-2.156,2.551,2.551,0,0,1,1.988-.8,2.4,2.4,0,0,1,1.869.781,2.923,2.923,0,0,1,.709,2.043A3.1,3.1,0,0,1,65.379-.7,2.5,2.5,0,0,1,63.434.094Zm.047-5.2a1.806,1.806,0,0,0-1.434.637A2.465,2.465,0,0,0,61.5-2.793a2.482,2.482,0,0,0,.537,1.666,1.752,1.752,0,0,0,1.4.631,1.839,1.839,0,0,0,1.453-.6,2.458,2.458,0,0,0,.531-1.684A2.569,2.569,0,0,0,64.9-4.5,1.768,1.768,0,0,0,63.48-5.1Z" transform="translate(213 323)" fill="#fff"/>
  </g>
</svg>
