<svg xmlns="http://www.w3.org/2000/svg" viewBox="0 0 251.93 22.86"><defs><style>.cls-1{fill:#F4FD6B;}</style></defs><title>Asset 6</title><g id="Layer_2" data-name="Layer 2"><g id="Layer_1-2" data-name="Layer 1"><path class="cls-1" d="M21.47,15.21H231.52c3.54,0,3.55-5.5,0-5.5h-210c-3.54,0-3.54,5.5,0,5.5Z"/><path class="cls-1" d="M230.06,5.09l17.67,9.2,2.12-5c-8-1.09-17.95-1.45-22.15,7.05-1.56,3.16,3.18,5.95,4.75,2.77,3-6,10.32-5.28,15.94-4.52,2.8.38,5.15-3.44,2.12-5L232.84.34c-3.14-1.64-5.92,3.11-2.78,4.75Z"/><path class="cls-1" d="M24.81.2A60.66,60.66,0,0,0,1.32,7.86a2.78,2.78,0,0,0,.65,5c8.56,2.16,17,4.43,24.33,9.48,2.93,2,5.68-2.75,2.78-4.75-7.72-5.3-16.67-7.77-25.64-10l.65,5A53.72,53.72,0,0,1,24.81,5.7c3.48-.4,3.52-5.9,0-5.5Z"/></g></g></svg>