<?xml version="1.0" standalone="no"?>
<!DOCTYPE svg PUBLIC "-//W3C//DTD SVG 20010904//EN"
 "http://www.w3.org/TR/2001/REC-SVG-20010904/DTD/svg10.dtd">
<svg version="1.0" xmlns="http://www.w3.org/2000/svg"
 width="512.000000pt" height="512.000000pt" viewBox="0 0 512.000000 512.000000"
 preserveAspectRatio="xMidYMid meet">

<g transform="translate(0.000000,512.000000) scale(0.100000,-0.100000)"
fill="#fff" stroke="none">
<path d="M299 4554 c-60 -18 -139 -89 -170 -151 l-24 -48 0 -1795 0 -1795 24
-48 c32 -65 110 -133 174 -152 44 -13 318 -15 2257 -15 1939 0 2213 2 2257 15
64 19 142 87 174 152 l24 48 0 1795 0 1795 -23 47 c-32 65 -111 134 -175 153
-74 22 -4446 22 -4518 -1z m4498 -157 c59 -32 63 -52 63 -297 l0 -220 -2300 0
-2300 0 0 223 c0 193 2 226 17 247 23 33 42 48 78 59 18 6 900 9 2220 8 2073
-2 2192 -3 2222 -20z m63 -2132 c0 -1618 5 -1506 -63 -1542 -30 -17 -148 -18
-2237 -18 -2143 0 -2206 1 -2236 19 -69 42 -64 -84 -64 1540 l0 1466 2300 0
2300 0 0 -1465z"/>
<path d="M699 4235 c-56 -30 -63 -125 -12 -165 66 -52 163 -4 163 80 0 80 -79
124 -151 85z"/>
<path d="M1129 4235 c-56 -30 -63 -125 -12 -165 66 -52 163 -4 163 80 0 80
-79 124 -151 85z"/>
<path d="M1559 4235 c-56 -30 -63 -125 -12 -165 66 -52 163 -4 163 80 0 80
-79 124 -151 85z"/>
<path d="M2373 4223 c-55 -11 -72 -97 -27 -132 27 -21 30 -21 1080 -21 750 0
1060 3 1077 11 24 11 47 47 47 74 0 8 -11 27 -24 42 l-24 28 -1054 1 c-579 1
-1063 -1 -1075 -3z"/>
<path d="M2409 3456 c-153 -32 -271 -98 -389 -216 -96 -96 -141 -166 -181
-280 -151 -427 96 -889 535 -1000 107 -27 265 -27 372 0 439 111 686 573 535
1000 -41 115 -86 184 -186 286 -76 77 -104 98 -185 137 -52 26 -122 54 -155
63 -83 22 -264 27 -346 10z m339 -171 c163 -53 294 -169 365 -325 43 -93 57
-158 57 -263 0 -128 -46 -269 -114 -352 l-25 -30 -17 25 c-30 44 -120 125
-167 150 l-45 24 27 41 c45 66 56 104 55 190 0 67 -5 89 -29 138 -33 68 -97
130 -163 160 -36 16 -67 21 -132 21 -65 0 -96 -5 -132 -21 -66 -30 -133 -96
-165 -162 -23 -47 -27 -69 -27 -141 0 -74 4 -93 29 -143 15 -31 35 -62 42 -69
11 -9 3 -17 -37 -40 -52 -30 -133 -102 -164 -148 l-17 -25 -25 30 c-69 84
-114 224 -114 355 0 149 45 279 134 385 168 203 418 279 664 200z m-107 -390
c38 -20 77 -70 89 -115 14 -50 0 -107 -36 -150 -37 -43 -75 -60 -134 -60 -59
0 -97 17 -134 60 -120 143 48 351 215 265z m84 -515 c69 -27 189 -136 183
-167 -4 -22 -80 -64 -168 -95 -87 -31 -267 -33 -350 -4 -78 27 -170 74 -177
91 -14 39 109 149 206 182 87 31 216 28 306 -7z"/>
<path d="M797 1698 c-9 -7 -34 -50 -56 -95 l-40 -82 -82 -7 c-98 -8 -132 -30
-132 -84 0 -29 10 -43 68 -97 l67 -63 -17 -91 c-17 -89 -17 -91 2 -117 31 -42
71 -40 158 8 l75 41 75 -41 c87 -48 127 -50 157 -9 19 25 19 28 2 118 l-18 92
67 60 c61 55 67 64 67 99 0 57 -30 77 -134 85 l-83 7 -33 75 c-18 42 -42 84
-54 94 -23 22 -65 25 -89 7z m61 -283 c8 -16 23 -28 42 -31 34 -7 35 -11 15
-38 -8 -11 -15 -35 -15 -54 0 -29 -3 -33 -17 -26 -10 4 -29 8 -43 8 -14 0 -33
-4 -42 -8 -15 -7 -18 -3 -18 26 0 19 -7 43 -15 54 -20 27 -19 31 15 38 19 3
34 15 42 31 6 14 14 25 18 25 4 0 12 -11 18 -25z"/>
<path d="M1660 1700 c-8 -5 -33 -47 -55 -92 l-41 -83 -87 -11 c-101 -12 -130
-31 -130 -85 0 -28 11 -43 68 -96 l67 -63 -17 -91 c-17 -89 -17 -91 2 -117 31
-42 71 -40 158 8 l75 41 75 -41 c88 -48 127 -50 158 -8 20 26 20 28 2 118
l-19 91 67 60 c60 54 67 64 67 98 0 57 -25 73 -128 86 l-87 10 -38 79 c-21 44
-46 85 -55 92 -20 16 -61 18 -82 4z m58 -285 c8 -16 23 -28 42 -31 34 -7 35
-11 15 -38 -8 -11 -15 -35 -15 -54 0 -29 -3 -33 -17 -26 -10 4 -29 8 -43 8
-14 0 -33 -4 -42 -8 -15 -7 -18 -3 -18 26 0 19 -7 43 -15 54 -20 27 -19 31 15
38 19 3 34 15 42 31 6 14 14 25 18 25 4 0 12 -11 18 -25z"/>
<path d="M2520 1700 c-8 -5 -33 -47 -55 -92 l-41 -83 -87 -11 c-101 -12 -130
-31 -130 -85 0 -28 11 -43 68 -96 l67 -63 -17 -91 c-17 -89 -17 -91 2 -117 31
-42 71 -40 158 8 l75 41 75 -41 c87 -48 127 -50 158 -8 19 26 19 28 2 118
l-18 92 67 60 c59 53 66 64 66 97 0 57 -25 73 -128 86 l-87 10 -38 79 c-21 44
-46 85 -55 92 -20 16 -61 18 -82 4z m58 -285 c8 -16 23 -28 42 -31 34 -7 35
-11 15 -38 -8 -11 -15 -35 -15 -54 0 -29 -3 -33 -17 -26 -10 4 -29 8 -43 8
-14 0 -33 -4 -42 -8 -15 -7 -18 -3 -18 26 0 19 -7 43 -15 54 -20 27 -19 31 15
38 19 3 34 15 42 31 6 14 14 25 18 25 4 0 12 -11 18 -25z"/>
<path d="M3380 1700 c-8 -5 -33 -47 -55 -92 l-41 -83 -87 -11 c-102 -12 -131
-31 -129 -86 0 -28 11 -43 68 -95 l67 -62 -18 -91 c-17 -90 -17 -92 2 -118 31
-42 71 -40 158 8 l75 41 75 -41 c87 -48 127 -50 158 -8 19 26 19 28 2 118
l-18 92 67 60 c59 53 66 64 66 97 0 57 -25 73 -128 86 l-87 10 -38 79 c-21 44
-46 85 -55 92 -20 16 -61 18 -82 4z m58 -285 c8 -16 23 -28 42 -31 34 -7 35
-11 15 -38 -8 -11 -15 -35 -15 -54 0 -29 -3 -33 -17 -26 -10 4 -29 8 -43 8
-14 0 -33 -4 -42 -8 -15 -7 -18 -3 -18 26 0 19 -7 43 -15 54 -20 27 -19 31 15
38 19 3 34 15 42 31 6 14 14 25 18 25 4 0 12 -11 18 -25z"/>
<path d="M4238 1697 c-9 -7 -34 -49 -55 -93 l-39 -79 -86 -11 c-104 -12 -128
-29 -128 -85 0 -33 7 -44 66 -97 l67 -60 -18 -92 c-17 -90 -17 -92 2 -118 31
-42 71 -40 158 8 l75 41 75 -41 c87 -48 127 -50 158 -8 19 26 19 28 2 118
l-18 92 67 60 c59 53 66 64 66 97 0 57 -25 73 -128 86 l-86 10 -39 79 c-21 44
-46 86 -55 93 -22 16 -62 16 -84 0z m60 -282 c8 -16 23 -28 42 -31 34 -7 35
-11 15 -38 -8 -11 -15 -35 -15 -54 0 -29 -3 -33 -17 -26 -10 4 -29 8 -43 8
-14 0 -33 -4 -42 -8 -15 -7 -18 -3 -18 26 0 19 -7 43 -15 54 -20 27 -19 31 15
38 19 3 34 15 42 31 6 14 14 25 18 25 4 0 12 -11 18 -25z"/>
</g>
</svg>
