<svg xmlns="http://www.w3.org/2000/svg" width="84.677" height="132.451" viewBox="0 0 84.677 132.451">
  <g id="Grupo_2" data-name="Grupo 2" transform="translate(0 0)">
    <g id="Gru" transform="translate(3.819)">
      <g id="Grupo-4">
        <path id="Caminho_35" data-name="Caminho 35" d="M42.126-638.652a43.324,43.324,0,0,1-1.989,9.535,24.26,24.26,0,0,1-2.713,5.228A30.046,30.046,0,0,1,29.911-617l-.855.542v11.426l-1.595.46a40.7,40.7,0,0,0-12.988,6.379,48.364,48.364,0,0,0-7.48,7.415,33.585,33.585,0,0,0,1.085,42c10.374,12.445,27.932,17.164,43.879,11.755a39.145,39.145,0,0,0,14.829-9.174,25.643,25.643,0,0,0,6.116-8.779l.543-1.595v2.384h3.781v-28.935H75.647l-.214,1.48A37.369,37.369,0,0,1,72-570.951c-3.157,5.738-7.3,8.943-13.464,10.423-2.992.707-5.7.921-12.215.921H40.482l.575-.345a4.558,4.558,0,0,0,1.989-2.2l.477-.986v-38.092l.543.115a27.136,27.136,0,0,1,4.587,1.94,27.643,27.643,0,0,1,9.174,9.075,4.267,4.267,0,0,0,.559.773c.1.066,3.009.132,6.477.132,5.031,0,6.28-.049,6.28-.214,0-.378-2.762-3.7-4.5-5.442a40.313,40.313,0,0,0-22.326-10.867l-.789-.1V-640H42.241ZM30.881-599.475a8.817,8.817,0,0,0-1.381,2.022l-.526,1.1-.082,18.084-.082,18.084-.395.9a8.652,8.652,0,0,1-4.126,4.406l-1.217.608,3.272.049c1.808.016,9.354.016,16.769,0,12.527-.049,13.53-.066,14.237-.345A6.524,6.524,0,0,0,60-556.714c.477-.658.477-.658.378-.181a20.974,20.974,0,0,1-1.989,4.488c-6,10.259-16.062,14.813-25.663,11.59a24.631,24.631,0,0,1-12.248-9.749c-7.826-11.738-7.842-28.7-.033-40.377a25.9,25.9,0,0,1,9.634-8.779,12.694,12.694,0,0,1,1.513-.658C31.67-600.379,31.341-599.968,30.881-599.475Z" transform="translate(-0.145 640)" fill="#fff"/>
      </g>
      <path id="Caminho_31" data-name="Caminho 31" d="M3.178-18.071s.474,6.587,1.9,8.008S9.642-8.1,9.642-8.1s-3.147.474-4.569,1.9-1.9,7.936-1.9,7.936S2.831-4.788,1.409-6.21s-4.7-1.9-4.7-1.9,3.274-.537,4.7-1.958S3.178-18.071,3.178-18.071Z" transform="translate(61.885 72.313)" fill="#fff"/>
    </g>
    <path id="Caminho_41" data-name="Caminho 41" d="M-91.352-26.491H-97.76V-46.67h2.7v17.734h3.71Zm1.546,0V-46.67h6.689v2.445h-3.991V-38.1h3.541v2.445h-3.541v6.717h3.991v2.445Zm11.747,0q-3.26,0-3.26-3.429V-43.213q0-3.457,3.232-3.457H-75.5q3.232,0,3.232,3.457V-29.92q0,3.429-3.26,3.429Zm.646-2.445h1.377q1.068,0,1.068-1.18V-43.045a1.056,1.056,0,0,0-1.208-1.18h-1.265a1.043,1.043,0,0,0-1.18,1.18v12.928A1.056,1.056,0,0,0-77.413-28.936Zm15.6-2.276v1.293q0,3.429-3.232,3.429H-66.79q-3.232,0-3.232-3.429V-43.241q0-3.429,3.232-3.429h1.742q3.232,0,3.232,3.429v2.276h-2.7v-2.08a1.056,1.056,0,0,0-1.208-1.18h-.534q-1.068,0-1.068,1.18v12.928q0,1.18,1.068,1.18h.674q1.068,0,1.068-1.18v-1.1Zm5.227,4.721q-3.26,0-3.26-3.429V-43.213q0-3.457,3.232-3.457h2.586q3.232,0,3.232,3.457V-29.92q0,3.429-3.26,3.429Zm.646-2.445h1.377q1.068,0,1.068-1.18V-43.045a1.056,1.056,0,0,0-1.208-1.18H-55.97a1.043,1.043,0,0,0-1.18,1.18v12.928A1.056,1.056,0,0,0-55.942-28.936Zm12.7-12.309v-1.771a1.056,1.056,0,0,0-1.18-1.208h-.422q-1.152,0-1.152,1.208v3.344a.991.991,0,0,0,.225.759,5.7,5.7,0,0,0,.731.506l2.557,1.377a11.757,11.757,0,0,1,1.194.745,1.908,1.908,0,0,1,.548.646,3.561,3.561,0,0,1,.2,1.447v4.3q0,3.4-3.26,3.4h-1.658q-3.232,0-3.232-3.71v-1.012h2.7v1.1a1.056,1.056,0,0,0,1.208,1.18h.478q1.068,0,1.068-1.18v-3.429a.991.991,0,0,0-.225-.759,5.693,5.693,0,0,0-.731-.506l-2.557-1.433A8.069,8.069,0,0,1-47.974-37a1.734,1.734,0,0,1-.548-.8,4.025,4.025,0,0,1-.169-1.279v-4.131q0-3.457,3.232-3.457h1.686q3.232,0,3.232,3.457v1.967Zm9.246-2.979v17.734h-2.7V-44.225h-2.586V-46.67h7.869v2.445Zm8.431,0v17.734h-2.7V-44.225h-2.586V-46.67h7.869v2.445Zm6.689,17.734h-2.7V-43.213q0-3.457,3.232-3.457h2.023q3.232,0,3.232,3.457v16.722h-2.7v-7.391h-3.091Zm3.091-9.836v-6.717a1.043,1.043,0,0,0-1.18-1.18h-.731a1.043,1.043,0,0,0-1.18,1.18v6.717Z" transform="translate(97.76 158.942)" fill="#fff"/>
  </g>
</svg>
