<?xml version="1.0" standalone="no"?>
<!DOCTYPE svg PUBLIC "-//W3C//DTD SVG 20010904//EN"
 "http://www.w3.org/TR/2001/REC-SVG-20010904/DTD/svg10.dtd">
<svg version="1.0" xmlns="http://www.w3.org/2000/svg"
 width="512.000000pt" height="512.000000pt" viewBox="0 0 512.000000 512.000000"
 preserveAspectRatio="xMidYMid meet">

<g transform="translate(0.000000,512.000000) scale(0.100000,-0.100000)"
fill="#fff" stroke="none">
<path d="M299 4554 c-60 -18 -139 -89 -170 -151 l-24 -48 0 -1795 0 -1795 24
-48 c32 -65 110 -133 174 -152 44 -13 318 -15 2257 -15 1939 0 2213 2 2257 15
64 19 142 87 174 152 l24 48 0 1795 0 1795 -23 47 c-32 65 -111 134 -175 153
-74 22 -4446 22 -4518 -1z m4498 -157 c59 -32 63 -52 63 -297 l0 -220 -2300 0
-2300 0 0 223 c0 193 2 226 17 247 23 33 42 48 78 59 18 6 900 9 2220 8 2073
-2 2192 -3 2222 -20z m63 -2132 c0 -1618 5 -1506 -63 -1542 -30 -17 -148 -18
-2237 -18 -2143 0 -2206 1 -2236 19 -69 42 -64 -84 -64 1540 l0 1466 2300 0
2300 0 0 -1465z"/>
<path d="M699 4235 c-56 -30 -63 -125 -12 -165 66 -52 163 -4 163 80 0 80 -79
124 -151 85z"/>
<path d="M1129 4235 c-56 -30 -63 -125 -12 -165 66 -52 163 -4 163 80 0 80
-79 124 -151 85z"/>
<path d="M1559 4235 c-56 -30 -63 -125 -12 -165 66 -52 163 -4 163 80 0 80
-79 124 -151 85z"/>
<path d="M2373 4223 c-55 -11 -72 -97 -27 -132 27 -21 30 -21 1080 -21 750 0
1060 3 1077 11 24 11 47 47 47 74 0 8 -11 27 -24 42 l-24 28 -1054 1 c-579 1
-1063 -1 -1075 -3z"/>
<path d="M611 3514 c-21 -26 -21 -34 -21 -664 l0 -637 23 -21 23 -22 1036 0
c1005 0 1036 1 1059 19 l24 19 0 647 0 647 -24 19 c-23 18 -54 19 -1061 19
l-1039 0 -20 -26z m1989 -659 l0 -535 -930 0 -930 0 0 535 0 535 930 0 930 0
0 -535z"/>
<path d="M3090 3493 c-53 -20 -69 -93 -29 -129 20 -18 48 -19 698 -22 675 -2
678 -2 704 19 35 27 38 86 6 115 -20 18 -48 19 -693 21 -369 1 -678 -1 -686
-4z"/>
<path d="M3076 3099 c-33 -26 -36 -79 -6 -109 20 -20 33 -20 703 -20 742 0
717 -2 731 55 7 27 -7 62 -33 82 -12 9 -176 12 -692 13 -669 0 -677 0 -703
-21z"/>
<path d="M3081 2714 c-28 -35 -26 -69 4 -99 l24 -25 679 0 c633 0 681 1 701
18 32 26 37 72 11 105 l-21 27 -689 0 -689 0 -20 -26z"/>
<path d="M3114 2358 c-22 -10 -44 -47 -44 -74 0 -9 13 -29 29 -45 l29 -29 667
0 c576 0 670 2 695 15 53 27 53 103 0 130 -25 13 -118 15 -692 14 -435 0 -670
-4 -684 -11z"/>
<path d="M1462 1917 c-21 -23 -22 -30 -22 -291 l0 -267 25 -24 24 -25 929 0
929 0 22 -102 c35 -161 50 -207 71 -218 37 -20 69 -11 116 32 l45 41 88 -86
c122 -120 121 -120 270 27 151 150 151 151 28 274 l-86 87 44 47 c49 51 56 82
28 117 -13 16 -54 31 -158 57 -77 19 -157 39 -177 45 l-38 10 0 129 c0 117 -2
132 -20 150 -20 20 -33 20 -1058 20 l-1039 0 -21 -23z m1988 -182 c0 -60 -2
-61 -61 -45 -47 13 -85 -1 -101 -35 -11 -25 -7 -67 19 -173 l5 -22 -858 2
-859 3 -3 163 -2 162 930 0 930 0 0 -55z m133 -251 c56 -14 119 -30 141 -35
l38 -10 -21 -23 c-13 -13 -21 -35 -21 -55 0 -29 13 -47 85 -120 l85 -87 -40
-39 -40 -39 -89 87 c-97 95 -125 106 -168 66 -18 -17 -24 -19 -28 -8 -4 12
-65 279 -65 286 0 7 27 2 123 -23z"/>
</g>
</svg>
