<svg xmlns="http://www.w3.org/2000/svg" width="578.818" height="149.567" viewBox="0 0 578.818 149.567">
  <g id="logoc" transform="translate(-130.25 -488.217)">
    <path id="logoc-2" data-name="logoc" d="M53.872-18.837c0-8.19-3.549-12.194-9.646-14.56,4.823-2.366,7.462-6.279,7.462-12.831,0-11.011-7.735-15.652-19.383-15.652H9.555a6.567,6.567,0,0,0-6.37,6.643V0H31.3C44.681,0,53.872-6.006,53.872-18.837ZM38.948-44.59c0,5.187-4.1,6.734-9.1,6.734h-14.2V-51.142H29.666C35.4-51.142,38.948-49.777,38.948-44.59ZM40.5-19.2c0,6.188-3.822,8.008-10.1,8.008H15.652v-16.2h14.56C36.764-27.391,40.5-25.571,40.5-19.2ZM88.725-51.87c11.557,0,17.017,8.736,17.017,20.93,0,12.467-5.46,21.2-17.017,21.2S71.8-18.837,71.8-30.94C71.8-42.952,77.168-51.87,88.725-51.87Zm0,52.78c18.837,0,29.666-12.831,29.666-31.85,0-18.746-11.193-31.941-29.666-31.941-18.382,0-29.575,13.013-29.575,31.941S69.888.91,88.725.91Zm71.344-62.79a5.76,5.76,0,0,0-5.551,3.185L143.689-40.131,131.131-61.88H116.48l19.383,30.212L116.48,0h14.651l12.558-21.476L156.338,0H171.08L151.7-31.668,171.08-61.88Zm16.289,6.643V0h11.921V-49.959L200.928,0H213.85L226.5-49.959V0H238.42V-61.88H219.583l-12.1,47.138L195.013-61.88H182.728A6.567,6.567,0,0,0,176.358-55.237ZM245.063,0h44.772V-11.375H257.53V-27.391h17.563c4.459,0,6.643-2.093,6.552-6.37v-4.095H257.53V-51.142h32.305V-61.88h-38.4c-4.277.091-6.37,2.366-6.37,6.643Zm75.166-61.88H302.393c-4.277.091-6.37,2.366-6.37,6.643V0h20.839a53.562,53.562,0,0,0,13.1-1.274c11.921-3.185,18.473-14.469,18.473-29.666C348.439-50.687,339.885-61.88,320.229-61.88Zm15.288,30.94c0,13.013-4.368,19.747-16.926,19.747h-10.1V-51.051h11.739C331.7-51.051,335.517-43.316,335.517-30.94ZM354.263,0h12.649V-61.88h-6.279c-4.277,0-6.37,2.275-6.37,6.643Zm45.409-61.88q-4.641,0-6.006,4.095L373.009,0h13.559l4.1-12.649H414.6L418.691,0h13.377l-22.2-61.88Zm2.821,12.467,8.554,26.3H394.03Z" transform="translate(277 593)" fill="#fff"/>
    <path id="Polígono_1" data-name="Polígono 1" d="M89.25,0,119,52,89.25,104H29.75L0,52,29.75,0Z" transform="translate(182.25 488.217) rotate(30)" fill="#fc1c46"/>
    <path id="Caminho_1" data-name="Caminho 1" d="M33.25.372,63.422,52.221H.047Z" transform="translate(155.779 566.5) rotate(-90)" fill="#bf1636"/>
    <path id="Caminho_2" data-name="Caminho 2" d="M32.594,51.841,62.438.185-.969.221Z" transform="translate(207.779 565.5) rotate(-90)" fill="#7e0f24"/>
  </g>
</svg>
