<svg xmlns="http://www.w3.org/2000/svg" width="395.053" height="37.404" viewBox="0 0 395.053 37.404">
  <path id="logo" d="M-292.616-56.392A7.7,7.7,0,0,0-300.3-64.08h-28.26v37.4H-298.9a7.716,7.716,0,0,0,7.74-7.688v-7.74a8.174,8.174,0,0,0-1.818-4.883,6.8,6.8,0,0,0,.364-2.39Zm-27.9,14.754h21.2v6.857h-21.2Zm0-14.338h19.741v6.234h-19.741Zm42.6-8.1a7.671,7.671,0,0,0-7.688,7.688v22.027a7.671,7.671,0,0,0,7.688,7.688h60.377a7.7,7.7,0,0,0,7.688-7.688V-56.392a7.7,7.7,0,0,0-7.688-7.688Zm.364,8.1H-218v21.2H-277.55Zm100.326-8.1c-3.221,3.948-7.481,8.779-10.286,12.312L-197.9-64.08h-8.364v2.753c4.416,5.195,8.987,10.7,13.351,15.948L-206.264-29.43v2.753h8.364c3.169-3.9,7.429-8.779,10.286-12.26l10.39,12.26h8.364v-2.805l-13.4-15.9,13.4-15.948V-64.08Zm34.65,15.117L-155.249-64.08h-8.312v37.4h8.052v-25.04l12.935,15.325c4.156-4.883,8.676-10.39,12.883-15.377v25.092h8.1v-37.4h-8.364ZM-30.917-64.08h-84.332v37.4h84.332v-8.1h-76.176v-6.546H-36.06v-8.1h-71.033v-6.546h76.176Zm5.247,0v37.4H3.993a7.716,7.716,0,0,0,7.74-7.688V-56.392a7.716,7.716,0,0,0-7.74-7.688Zm8.052,8.1h21.2v21.2h-21.2ZM17.6-26.677h8.1v-37.4H17.6Zm19.169-37.4a7.671,7.671,0,0,0-7.689,7.688v29.715h8.052V-38.729h21.2v12.052h8.156V-56.392a7.716,7.716,0,0,0-7.74-7.688Zm.364,17.247v-9.143h21.2v9.143Z" transform="translate(328.564 64.08)" fill="#fff"/>
</svg>
