<?xml version="1.0" standalone="no"?>
<!DOCTYPE svg PUBLIC "-//W3C//DTD SVG 20010904//EN"
 "http://www.w3.org/TR/2001/REC-SVG-20010904/DTD/svg10.dtd">
<svg version="1.0" xmlns="http://www.w3.org/2000/svg"
 width="512.000000pt" height="512.000000pt" viewBox="0 0 512.000000 512.000000"
 preserveAspectRatio="xMidYMid meet">

<g transform="translate(0.000000,512.000000) scale(0.100000,-0.100000)"
fill="#fff" stroke="none">
<path d="M1318 5006 c-89 -24 -168 -107 -187 -197 -7 -30 -11 -188 -11 -399
l0 -349 -167 -3 c-159 -3 -170 -4 -202 -27 -65 -46 -71 -76 -71 -352 0 -238 1
-247 23 -290 15 -27 38 -52 63 -66 36 -21 52 -23 197 -23 l157 0 0 -595 0
-595 -231 0 -231 0 -29 -29 -29 -29 1 -354 c0 -194 4 -375 8 -402 10 -61 29
-76 97 -76 l52 0 4 -116 c3 -108 5 -117 27 -135 41 -33 69 -24 203 66 l127 85
3 -408 c3 -452 2 -442 73 -520 20 -23 57 -51 83 -64 l47 -23 1235 0 c1155 0
1237 1 1272 17 56 27 106 75 136 132 l27 51 3 421 3 422 46 11 c125 32 265
136 343 254 124 190 124 454 0 644 -78 118 -218 222 -344 254 l-46 11 0 334 0
334 25 0 c36 0 147 43 211 81 79 48 174 154 217 241 47 97 62 165 61 273 -3
283 -198 516 -486 579 l-27 6 -3 323 -3 322 -27 51 c-30 57 -83 108 -137 133
-33 14 -153 16 -1251 18 -956 1 -1225 -1 -1262 -11z m2488 -180 l34 -34 0
-161 0 -161 -1280 0 -1280 0 0 161 0 161 34 34 34 34 1212 0 1212 0 34 -34z
m34 -586 c0 -68 -1 -70 -27 -76 -227 -50 -399 -205 -466 -419 -25 -81 -29
-240 -8 -315 40 -142 148 -288 265 -359 64 -38 175 -81 211 -81 l25 0 0 -329
0 -329 -42 -7 c-193 -32 -356 -151 -439 -320 -65 -132 -82 -255 -54 -388 49
-234 227 -414 459 -464 l76 -17 0 -93 0 -93 -1280 0 -1280 0 0 135 0 135 235
0 236 0 24 25 25 24 0 386 c0 405 -3 432 -45 449 -9 3 -120 6 -246 6 l-229 0
0 595 0 595 155 0 c171 0 192 5 239 60 42 51 48 93 44 348 -3 224 -4 239 -25
272 -12 20 -40 46 -61 58 -36 20 -53 22 -196 22 l-156 0 0 125 0 125 1280 0
1280 0 0 -70z m172 -231 c107 -23 198 -82 265 -173 94 -127 110 -303 41 -447
-64 -134 -181 -223 -328 -250 -133 -23 -278 23 -377 120 -99 98 -138 199 -131
345 3 78 9 101 38 161 89 185 292 286 492 244z m-2583 -103 c-2 -2 -52 -44
-111 -95 -59 -50 -113 -91 -119 -91 -6 0 -49 33 -96 73 -46 39 -96 82 -111 94
l-27 23 234 0 c129 0 232 -2 230 -4z m-441 -217 c117 -101 166 -129 218 -129
40 1 104 42 222 144 68 58 125 106 128 106 2 0 4 -81 4 -180 l0 -180 -362 2
-363 3 -3 184 c-2 172 -1 183 15 170 9 -8 73 -62 141 -120z m2983 -1519 c136
-25 256 -120 318 -249 35 -73 36 -80 36 -186 0 -106 -1 -113 -36 -186 -87
-181 -278 -284 -469 -251 -356 61 -498 495 -245 748 106 106 250 151 396 124z
m-2331 -505 l0 -295 -213 0 -213 0 -142 -95 c-78 -52 -144 -95 -147 -95 -3 0
-5 24 -5 54 0 64 -16 113 -40 126 -10 6 -41 10 -69 10 l-51 0 0 290 0 289 118
3 c64 2 262 4 440 6 l322 2 0 -295z m2200 -1101 l0 -236 -34 -34 -34 -34
-1212 0 -1212 0 -34 34 -34 34 0 236 0 236 1280 0 1280 0 0 -236z"/>
<path d="M2942 3514 c-40 -16 -49 -49 -33 -120 7 -29 10 -58 6 -64 -3 -5 -75
-63 -159 -128 l-152 -118 -340 -87 c-363 -95 -385 -104 -399 -168 -5 -23 -14
-29 -58 -39 -70 -17 -98 -32 -135 -74 -78 -89 -61 -222 36 -290 51 -36 125
-45 198 -23 50 15 50 15 82 -14 34 -31 71 -36 128 -20 l32 9 47 -182 c51 -198
55 -208 94 -249 39 -43 80 -60 141 -61 108 0 189 72 198 177 3 41 -7 95 -42
231 -32 121 -43 181 -36 186 6 4 54 17 108 29 l97 23 194 -30 c119 -19 197
-36 202 -44 4 -7 11 -30 15 -52 8 -49 43 -86 82 -86 39 0 72 33 72 72 0 32
-265 1069 -281 1099 -14 28 -61 39 -97 23z m94 -607 c37 -141 64 -260 61 -264
-7 -6 -238 25 -271 37 -15 5 -28 39 -58 155 -22 81 -35 151 -31 156 15 15 227
178 229 176 1 -1 32 -118 70 -260z m-420 -116 c25 -92 30 -123 20 -127 -7 -3
-131 -35 -277 -72 l-265 -68 -32 125 c-18 68 -31 125 -30 127 6 5 534 142 542
140 6 -1 24 -57 42 -125z m-707 -178 c6 -21 11 -41 11 -44 0 -3 -25 -11 -55
-18 -63 -14 -85 -5 -85 34 0 26 17 43 57 55 52 16 61 12 72 -27z m532 -369
c36 -146 41 -174 30 -188 -14 -17 -48 -21 -68 -8 -10 6 -103 334 -103 362 0
13 84 27 91 15 3 -5 26 -87 50 -181z"/>
<path d="M3730 3825 c-120 -54 -159 -192 -91 -329 55 -112 187 -236 268 -252
70 -14 229 120 289 242 49 101 44 217 -13 285 -44 52 -95 71 -172 65 -88 -8
-105 -8 -181 -1 -47 4 -74 1 -100 -10z m135 -160 c50 -31 63 -31 105 0 39 29
66 32 92 8 26 -24 22 -71 -12 -130 -35 -61 -106 -133 -131 -133 -10 0 -40 23
-68 51 -82 83 -112 169 -74 211 21 24 40 22 88 -7z"/>
<path d="M3744 2018 c-12 -5 -27 -21 -33 -34 -15 -34 -15 -464 0 -498 16 -34
62 -52 95 -38 41 19 348 222 362 240 6 9 12 30 12 47 0 17 -6 38 -12 47 -20
25 -368 248 -387 247 -9 0 -26 -5 -37 -11z m172 -248 c24 -17 44 -33 44 -35 0
-5 -87 -65 -94 -65 -3 0 -6 29 -6 65 0 36 3 65 6 65 3 0 25 -14 50 -30z"/>
<path d="M913 1848 c-33 -16 -48 -61 -33 -97 20 -49 43 -53 333 -49 265 3 265
3 291 27 34 32 34 74 1 106 l-24 25 -273 -1 c-169 0 -281 -4 -295 -11z"/>
<path d="M895 1595 c-14 -13 -25 -36 -25 -50 0 -14 11 -37 25 -50 l24 -25 281
0 281 0 24 25 c32 31 33 74 2 103 -23 22 -30 22 -306 22 l-282 0 -24 -25z"/>
<path d="M2210 573 c-26 -33 -21 -79 11 -105 19 -16 51 -18 339 -18 288 0 320
2 339 18 32 26 37 72 11 105 l-21 27 -329 0 -329 0 -21 -27z"/>
</g>
</svg>
