<svg xmlns="http://www.w3.org/2000/svg" width="1780" height="80" viewBox="0 0 1780 80">
  <g id="plan" transform="translate(-192 -153)">
    <path id="Caminho_42" data-name="Caminho 42" d="M30.21-10.83c0-14.706-21.432-8.322-21.432-18.582,0-4.275,3.363-6.5,7.638-6.384,4.845.057,7.353,3.078,7.695,5.757h5.7c-.627-6.042-5.586-10.2-13.167-10.2-7.866,0-13.167,4.446-13.167,11,0,14.763,21.489,7.923,21.489,18.639,0,3.762-2.964,6.612-7.98,6.612C11.457-3.99,9.12-7.3,8.778-10.6H3.249C3.363-4.047,9.006.4,16.986.4,25.593.4,30.21-5.187,30.21-10.83ZM57.171-39.786H35.8V0H57.171V-4.275H40.983v-13.68H55.461V-22.23H40.983V-35.511H57.171ZM91.029-5.472,78.546-39.729H73.017L88.008,0h5.985l14.991-39.729h-5.472Zm59.565-14.421c0-11.913-8.721-20.292-19.95-20.292-11.172,0-19.95,8.379-19.95,20.292S119.472.4,130.644.4C141.873.4,150.594-7.98,150.594-19.893Zm-34.6,0c0-9.747,6.27-15.789,14.649-15.789s14.649,6.042,14.649,15.789c0,9.69-6.27,15.789-14.649,15.789S116-10.2,116-19.893Zm37.449,0C153.444-7.98,162.165.342,173.28.342c8.607,0,15.447-4.275,18.411-11.913h-6.213c-2.166,4.731-6.384,7.41-12.2,7.41-8.322,0-14.535-6.042-14.535-15.732,0-9.747,6.213-15.789,14.535-15.789,5.814,0,10.032,2.679,12.2,7.467h6.213c-2.964-7.7-9.8-12.027-18.411-12.027C162.165-40.242,153.444-31.806,153.444-19.893Zm65.265-19.893H197.334V0h21.375V-4.275H202.521v-13.68H217V-22.23H202.521V-35.511h16.188ZM215.346-46.4l-7.866-4.731L199.557-46.4v4.1l7.923-4.845,7.866,4.845Zm27.531,25.536V-35.454h7.638c5.928,0,8.436,2.736,8.436,7.353,0,4.446-2.508,7.239-8.436,7.239ZM264.252-28.1c0-6.5-4.389-11.628-13.737-11.628H237.69V0h5.187V-16.587h7.638C260.376-16.587,264.252-22.059,264.252-28.1Zm25.65.057c0,4.446-2.565,7.638-8.436,7.638h-7.638V-35.454h7.638C287.394-35.454,289.9-32.547,289.9-28.044ZM268.641-39.729V0h5.187V-16.245h6.27L289.56,0h6.213L285.8-16.644c6.669-1.482,9.462-6.327,9.462-11.4,0-6.5-4.446-11.685-13.794-11.685Zm53.979-.057H301.245V0H322.62V-4.275H306.432v-13.68H320.91V-22.23H306.432V-35.511H322.62ZM326.5-19.893C326.5-7.98,335.217.342,346.332.342c8.607,0,15.447-4.275,18.411-11.913H358.53c-2.166,4.731-6.384,7.41-12.2,7.41-8.322,0-14.535-6.042-14.535-15.732,0-9.747,6.213-15.789,14.535-15.789,5.814,0,10.032,2.679,12.2,7.467h6.213c-2.964-7.7-9.8-12.027-18.411-12.027C335.217-40.242,326.5-31.806,326.5-19.893ZM370.386,0h5.187V-39.729h-5.187Zm37.791-10.83c0-14.706-21.432-8.322-21.432-18.582,0-4.275,3.363-6.5,7.638-6.384,4.845.057,7.353,3.078,7.695,5.757h5.7c-.627-6.042-5.586-10.2-13.167-10.2-7.866,0-13.167,4.446-13.167,11,0,14.763,21.489,7.923,21.489,18.639,0,3.762-2.964,6.612-7.98,6.612-5.529,0-7.866-3.306-8.208-6.612h-5.529c.114,6.555,5.757,11,13.737,11C403.56.4,408.177-5.187,408.177-10.83ZM440.439,0h5.472L431.6-39.5h-5.985L411.255,0h5.472l3.192-8.835h17.328Zm-4.674-13.053H421.4l7.182-20.064Zm39.9-26.676H463.3V0h12.369c13.053,0,21.09-7.467,21.09-19.779S488.718-39.729,475.665-39.729ZM468.483-4.275V-35.511h7.182c10.374,0,15.789,6.042,15.789,15.732s-5.415,15.5-15.789,15.5Zm54.435-35.511H501.543V0h21.375V-4.275H506.73v-13.68h14.478V-22.23H506.73V-35.511h16.188Zm18.867,25.137C541.785-4.332,548.511.4,556.719.4S571.71-4.332,571.71-14.649v-25.08h-5.187v25.137c0,7.3-3.876,10.431-9.747,10.431s-9.8-3.135-9.8-10.431V-39.729h-5.187ZM578.322,0h5.187V-29.469L596.676,0h3.648l13.11-29.412V0h5.187V-39.444h-5.529L598.5-6.84l-14.592-32.6h-5.586ZM643.7-20.862V-35.454h7.638c5.928,0,8.436,2.736,8.436,7.353,0,4.446-2.508,7.239-8.436,7.239ZM665.076-28.1c0-6.5-4.389-11.628-13.737-11.628H638.514V0H643.7V-16.587h7.638C661.2-16.587,665.076-22.059,665.076-28.1Zm4.389-11.628V0h19.1V-4.218H674.652V-39.729ZM718.713,0h5.472L709.878-39.5h-5.985L689.529,0H695l3.192-8.835h17.328Zm-4.674-13.053H699.675l7.182-20.064Zm40.413-26.733V-8.208L733.59-39.786H728.4V0h5.187V-31.635L754.452,0h5.187V-39.786Zm49.932,19.893c0-11.913-8.721-20.292-19.95-20.292-11.172,0-19.95,8.379-19.95,20.292S773.262.4,784.434.4C795.663.4,804.384-7.98,804.384-19.893Zm-34.6,0c0-9.747,6.27-15.789,14.649-15.789s14.649,6.042,14.649,15.789c0,9.69-6.27,15.789-14.649,15.789S769.785-10.2,769.785-19.893Zm57.741-.969V-35.454h7.638c5.928,0,8.436,2.736,8.436,7.353,0,4.446-2.508,7.239-8.436,7.239ZM848.9-28.1c0-6.5-4.389-11.628-13.737-11.628H822.339V0h5.187V-16.587h7.638C845.025-16.587,848.9-22.059,848.9-28.1Zm25.764-11.685H853.29V0h21.375V-4.275H858.477v-13.68h14.478V-22.23H858.477V-35.511h16.188ZM901.74-28.044c0,4.446-2.565,7.638-8.436,7.638h-7.638V-35.454H893.3C899.232-35.454,901.74-32.547,901.74-28.044ZM880.479-39.729V0h5.187V-16.245h6.27L901.4,0h6.213l-9.975-16.644c6.669-1.482,9.462-6.327,9.462-11.4,0-6.5-4.446-11.685-13.794-11.685ZM938.9-10.83c0-14.706-21.432-8.322-21.432-18.582,0-4.275,3.363-6.5,7.638-6.384,4.845.057,7.353,3.078,7.7,5.757h5.7c-.627-6.042-5.586-10.2-13.167-10.2-7.866,0-13.167,4.446-13.167,11,0,14.763,21.489,7.923,21.489,18.639,0,3.762-2.964,6.612-7.98,6.612-5.529,0-7.866-3.306-8.208-6.612h-5.529c.114,6.555,5.757,11,13.737,11C934.287.4,938.9-5.187,938.9-10.83Zm43.548-9.063c0-11.913-8.721-20.292-19.95-20.292-11.172,0-19.95,8.379-19.95,20.292S951.33.4,962.5.4C973.731.4,982.452-7.98,982.452-19.893Zm-34.6,0c0-9.747,6.27-15.789,14.649-15.789s14.649,6.042,14.649,15.789c0,9.69-6.27,15.789-14.649,15.789S947.853-10.2,947.853-19.893Zm65.436-19.893V-8.208L992.427-39.786H987.24V0h5.187V-31.635L1013.289,0h5.187V-39.786ZM1051.935,0h5.472L1043.1-39.5h-5.985L1022.751,0h5.472l3.192-8.835h17.328Zm-4.674-13.053H1032.9l7.182-20.064Zm14.364-26.676V0h19.095V-4.218h-13.908V-39.729ZM1084.2,0h5.187V-39.729H1084.2Zm35.625-39.729h-25.194v4.5h19.038L1094.4-4.1V0h25.536V-4.5h-19.38l19.266-31.122ZM1151.628,0h5.472l-14.307-39.5h-5.985L1122.444,0h5.472l3.192-8.835h17.328Zm-4.674-13.053H1132.59l7.182-20.064Zm26.733-26.676h-12.369V0h12.369c13.053,0,21.09-7.467,21.09-19.779S1186.74-39.729,1173.687-39.729Zm-7.182,35.454V-35.511h7.182c10.374,0,15.789,6.042,15.789,15.732s-5.415,15.5-15.789,15.5Zm71.022-15.618c0-11.913-8.721-20.292-19.95-20.292-11.172,0-19.95,8.379-19.95,20.292S1206.4.4,1217.577.4C1228.806.4,1237.527-7.98,1237.527-19.893Zm-34.6,0c0-9.747,6.27-15.789,14.649-15.789s14.649,6.042,14.649,15.789c0,9.69-6.27,15.789-14.649,15.789S1202.928-10.2,1202.928-19.893Zm50.046-.171c0,11.97,8.322,20.349,20.121,20.349,9.519,0,16.7-5.3,18.981-13.965H1281.36a8.815,8.815,0,0,1-8.379,5.13c-5.985,0-10.089-4.446-10.089-11.514s4.1-11.514,10.089-11.514a8.815,8.815,0,0,1,8.379,5.13h10.716c-2.28-8.664-9.462-14.022-18.981-14.022C1261.3-40.47,1252.974-32.034,1252.974-20.064Zm43.035-19.95V0h22.515V-7.524h-12.768v-32.49ZM1321.146,0h9.747V-40.014h-9.747Zm13.11-20.064c0,11.97,8.322,20.349,20.121,20.349,9.519,0,16.7-5.3,18.981-13.965h-10.716a8.815,8.815,0,0,1-8.379,5.13c-5.985,0-10.089-4.446-10.089-11.514s4.1-11.514,10.089-11.514a8.815,8.815,0,0,1,8.379,5.13h10.716c-2.28-8.664-9.462-14.022-18.981-14.022C1342.578-40.47,1334.256-32.034,1334.256-20.064ZM1400.49,0H1412.4l-16.074-20.406,15.5-19.608h-11.457l-13.338,17.556V-40.014h-9.747V0h9.747V-17.67ZM1452.3,0h10.317l-14.478-40.014h-11.286L1422.378,0h10.2l2.394-7.068h14.934Zm-4.9-14.592h-9.861l4.9-14.649Zm25.878-5.529c0-7.125,4.1-11.628,10.6-11.628,6.384,0,10.545,4.5,10.545,11.628,0,7.011-4.161,11.628-10.545,11.628C1477.383-8.493,1473.279-13.11,1473.279-20.121Zm31.065,0c0-12.027-9.063-20.463-20.463-20.463-11.343,0-20.577,8.436-20.577,20.463S1472.538.4,1483.881.4a22.612,22.612,0,0,0,4.446-.456l5.13,6.9h11.8l-8.778-10.545A20.194,20.194,0,0,0,1504.344-20.121Zm3.306,3.99c0,11.058,7.239,16.53,16.53,16.53,9.234,0,16.986-5.472,16.986-16.53V-40.014h-9.747v23.94c0,4.731-2.451,7.467-7.068,7.467s-6.954-2.736-6.954-7.467v-23.94h-9.747ZM1545.954,0h9.747V-40.014h-9.747Zm28.215-14.136h8.265l1.14-27.3h-10.545ZM1584.2-4.788c0-3.021-2.337-5.358-5.757-5.358-3.477,0-5.814,2.337-5.814,5.358,0,2.907,2.337,5.244,5.814,5.244C1581.864.456,1584.2-1.881,1584.2-4.788Z" transform="translate(287 213)" fill="#fff"/>
    <rect id="Retângulo_6" data-name="Retângulo 6" width="1780" height="80" transform="translate(192 153)" fill="none"/>
  </g>
</svg>
