<?xml version="1.0" standalone="no"?>
<!DOCTYPE svg PUBLIC "-//W3C//DTD SVG 20010904//EN"
 "http://www.w3.org/TR/2001/REC-SVG-20010904/DTD/svg10.dtd">
<svg version="1.0" xmlns="http://www.w3.org/2000/svg"
 width="512.000000pt" height="512.000000pt" viewBox="0 0 512.000000 512.000000"
 preserveAspectRatio="xMidYMid meet">

<g transform="translate(0.000000,512.000000) scale(0.100000,-0.100000)"
fill="#fff" stroke="none">
<path d="M2530 4857 c-44 -22 -51 -50 -48 -208 3 -128 5 -150 22 -168 26 -29
86 -29 112 0 17 19 19 38 19 180 0 145 -2 160 -20 178 -28 27 -56 33 -85 18z"/>
<path d="M1865 4680 c-25 -10 -40 -27 -50 -58 -5 -18 10 -53 70 -157 92 -162
118 -182 179 -134 41 32 34 67 -36 192 -85 151 -112 178 -163 157z"/>
<path d="M3204 4680 c-26 -10 -45 -37 -117 -166 -65 -115 -71 -151 -31 -183
61 -48 87 -28 179 133 60 105 75 139 70 159 -12 46 -61 73 -101 57z"/>
<path d="M2360 4260 c-99 -26 -240 -97 -315 -157 -128 -104 -231 -259 -277
-419 -20 -67 -23 -101 -22 -229 0 -141 2 -156 32 -245 35 -105 78 -183 161
-288 33 -42 66 -99 87 -152 22 -58 44 -94 67 -115 30 -26 35 -38 40 -92 9 -87
32 -137 87 -186 38 -35 49 -51 55 -87 16 -97 87 -190 173 -228 50 -21 175 -21
225 2 86 38 149 120 167 217 8 42 18 58 54 90 56 50 83 106 92 191 6 57 10 69
35 87 32 24 58 69 83 146 9 29 41 81 72 120 80 100 128 186 166 295 31 91 32
102 33 245 0 176 -13 233 -81 370 -102 207 -276 354 -499 425 -103 33 -329 38
-435 10z m406 -164 c200 -64 359 -224 430 -431 24 -69 27 -96 28 -195 0 -181
-39 -291 -159 -445 -65 -84 -94 -134 -115 -200 -21 -66 -19 -65 -171 -65
l-139 0 0 254 0 254 31 27 c18 14 53 37 80 50 81 41 101 94 53 142 -21 21 -32
24 -60 20 -29 -5 -98 -42 -165 -89 -13 -9 -31 -2 -92 36 -96 60 -136 68 -171
33 -48 -48 -28 -101 53 -142 27 -13 62 -36 80 -50 l31 -27 0 -254 0 -254 -139
0 c-155 0 -153 -1 -175 73 -18 60 -51 116 -116 197 -110 137 -168 312 -157
475 19 272 208 513 467 594 92 28 103 30 220 27 80 -3 124 -10 186 -30z m64
-1526 c0 -42 -20 -79 -51 -96 -37 -18 -394 -20 -434 -2 -32 14 -55 56 -55 98
l0 30 270 0 270 0 0 -30z m-140 -276 c0 -17 -36 -63 -60 -78 -38 -22 -108 -20
-144 3 -27 18 -55 55 -56 74 0 4 59 7 130 7 72 0 130 -3 130 -6z"/>
<path d="M1374 4190 c-26 -10 -54 -48 -54 -71 0 -32 40 -66 157 -134 133 -77
164 -83 200 -41 48 57 27 87 -120 173 -136 79 -153 85 -183 73z"/>
<path d="M3689 4187 c-14 -7 -75 -41 -136 -76 -137 -79 -158 -111 -110 -167
37 -42 67 -36 200 41 157 91 183 125 135 179 -29 31 -56 38 -89 23z"/>
<path d="M1203 3523 c-27 -5 -63 -48 -63 -75 0 -11 13 -33 29 -49 l29 -29 150
0 c136 0 152 2 176 21 46 36 32 108 -25 128 -30 10 -248 13 -296 4z"/>
<path d="M3614 3516 c-52 -23 -62 -91 -18 -125 24 -19 40 -21 176 -21 l150 0
30 30 c24 25 29 36 23 58 -3 15 -15 36 -26 47 -17 18 -35 20 -162 23 -105 1
-150 -1 -173 -12z"/>
<path d="M1480 2914 c-121 -69 -160 -102 -160 -135 0 -26 52 -79 77 -79 24 0
262 135 286 162 23 27 22 59 -4 92 -33 42 -69 35 -199 -40z"/>
<path d="M3441 2954 c-23 -29 -26 -55 -11 -84 12 -22 268 -170 294 -170 24 0
76 54 76 79 0 33 -39 66 -160 135 -130 75 -166 82 -199 40z"/>
<path d="M4604 2480 c-22 -5 -56 -15 -75 -23 -19 -8 -322 -195 -674 -417 -352
-221 -645 -404 -651 -407 -5 -2 -20 22 -33 52 -28 68 -100 144 -169 179 -89
45 -147 48 -811 43 -572 -4 -624 -6 -729 -26 -198 -37 -338 -92 -475 -188
l-62 -43 -7 62 c-9 77 -45 132 -108 168 -45 25 -47 25 -300 25 -253 0 -255 0
-300 -25 -50 -28 -85 -74 -100 -131 -7 -25 -10 -267 -8 -691 l3 -653 25 -45
c16 -28 43 -55 74 -75 l49 -30 256 0 c255 0 256 0 301 25 64 36 100 93 107
168 l6 62 691 0 c396 0 729 4 781 10 211 24 424 86 606 179 95 47 630 377
1720 1057 180 112 227 155 267 243 37 80 37 192 0 273 -51 111 -146 186 -262
207 -66 12 -64 12 -122 1z m168 -179 c52 -36 81 -84 86 -146 5 -67 -10 -115
-51 -154 -40 -39 -1740 -1097 -1860 -1157 -116 -59 -218 -99 -319 -125 -201
-51 -197 -51 -976 -56 l-732 -4 0 384 0 384 78 74 c129 124 300 199 535 233
86 13 216 16 728 16 611 0 623 0 666 -21 110 -53 150 -177 93 -289 -23 -45
-44 -64 -100 -89 -43 -20 -64 -21 -486 -21 -429 0 -441 -1 -462 -20 -29 -27
-29 -83 -2 -110 20 -20 29 -21 493 -18 l472 3 57 28 c73 36 137 99 175 174 29
57 31 59 249 195 328 207 520 327 824 519 385 242 363 230 436 226 45 -2 71
-9 96 -26z m-4018 -574 c23 -34 23 -1260 0 -1295 -14 -22 -17 -22 -242 -22
-164 0 -231 3 -240 12 -17 17 -17 1299 0 1316 9 9 76 12 240 12 226 0 228 0
242 -23z"/>
</g>
</svg>
